<?xml version="1.0" encoding="UTF-8"?>
<svg id="Capa_1" data-name="Capa 1" xmlns="http://www.w3.org/2000/svg" viewBox="0 0 459.21 323.35">
  <defs>
    <style>
      .cls-1 {
        fill: lime;
        stroke-width: 0px;
      }
    </style>
  </defs>
  <path class="cls-1" d="m454.32,276.56l-72.74-120.62c-6.6-12-21.16-19.27-36.31-10.01l-10.83,7.34c-11.48,7.12-20.78-5.06-24.28-10.76L234.29,20.15c-16.4-26.7-57.76-27-73.86-.1L5.4,272.95c-12.24,19.76-4.26,49.9,29.83,49.9l32.9.5c10,0,16-3,20-10s9.2-10,14-10h65c9,0,14,2,17.7,8.1,5.3,8.9,12.3,10.9,21.3,10.9l37.2.5c13,0,23.5-10.5,23.5-23.5v-62.5c0-5.4,5.4-6.1,8.3-1.5l2,3c12,17,24,27.87,40,19.87l5.45-3.74c5.2-3.4,12.86.15,15.66,5.65l18.99,39.61c7.1,14.1,21.5,23.1,37.3,23.1h28.28c30.49.5,44.61-23.54,31.5-46.29Zm-213.35,7.12c.2,10.6-3.63,16.97-14.23,16.97h-10c-11.4-.3-14.4-4.3-20.4-12.3s-11-11-20-11h-80c-6.8,0-12,2-19,12s-10,11-18.6,11.3h-19.7c-12.93,0-15.19-6.24-9.3-16.4L178.43,37.95c8-13.3,27.2-13.5,35.5-.4l82.57,130.47c10.82,15.8,25.15,24.82,45.54,11.35l2.36-1.62c10.78-5.92,19.33-1.26,23.03,4.74l57.69,96.97c9.68,15.2-.77,21.2-12,21.2l-12.49.63c-9.3,0-17.12-7.23-21.32-15.53l-26.12-54.93c-3.9-7.7-15.58-17.16-28.89-9.06l-7.23,4.96c-11.4,6.4-22.75,2.28-37.81-20.4l-75.05-129.27c-3.7-6.3-12.8-6.1-16.3.2l-85.1,152c-5.3,9.5,1.5,21.3,12.5,21.3h70.2c9.6,0,17.5-7.8,17.5-17.5v-88.3c0-6.9,9.1-9.4,12.6-3.5l25.33,46.02v96.42Zm-64.13-114.63v46.8c0,6.1-5,11.1-11.1,11.1h-17.5c-6.5,0-10.7-6.9-7.6-12.7l25.4-47.9c2.8-5.3,10.8-3.3,10.8,2.7Z"/>
</svg>