<?xml version="1.0" encoding="utf-8"?>
<!-- Generator: Adobe Illustrator 28.0.0, SVG Export Plug-In . SVG Version: 6.00 Build 0)  -->
<svg version="1.1" id="Capa_1" xmlns="http://www.w3.org/2000/svg" xmlns:xlink="http://www.w3.org/1999/xlink" x="0px" y="0px"
	 viewBox="0 0 492.4 421.1" style="enable-background:new 0 0 492.4 421.1;" xml:space="preserve">
<style type="text/css">
	.st0{fill:#FFFFFF;}
</style>
<g>
	<path class="st0" d="M26.2,401.8c-1.5,0-2.6-0.5-3.2-1.5s-0.6-2.2,0.1-3.7l13.8-30.1c0.6-1.2,1.3-2.1,2-2.6
		c0.8-0.6,1.7-0.8,2.8-0.8s2,0.3,2.8,0.8c0.8,0.6,1.5,1.4,2,2.6l13.9,30.1c0.7,1.5,0.7,2.7,0.1,3.7c-0.6,1-1.7,1.5-3,1.5
		c-1.2,0-2.2-0.3-2.8-0.9c-0.7-0.6-1.3-1.5-1.8-2.7l-2.3-5.1H32.7l-2.2,5.1c-0.5,1.3-1.1,2.1-1.7,2.7
		C28.1,401.5,27.3,401.8,26.2,401.8L26.2,401.8z M41.5,372.4l-6,14.3h12.2l-6.1-14.3H41.5z"/>
	<path class="st0" d="M78.9,401.9c-2.3,0-4.6-0.3-6.9-0.8c-2.3-0.5-4.3-1.2-6-2.2c-1-0.5-1.6-1.3-1.9-2.2c-0.3-0.9-0.2-1.8,0.2-2.6
		c0.4-0.9,0.9-1.5,1.7-1.8s1.7-0.3,2.9,0.3c1.4,0.8,3,1.4,4.8,1.8c1.8,0.4,3.5,0.6,5.2,0.6c2.6,0,4.5-0.4,5.6-1.2s1.7-1.8,1.7-3
		c0-1-0.4-1.9-1.2-2.5c-0.8-0.6-2.2-1.1-4.2-1.5l-6.1-1.3c-6.8-1.4-10.2-4.9-10.2-10.5c0-2.4,0.7-4.5,1.9-6.3
		c1.3-1.8,3.1-3.2,5.4-4.2c2.3-1,5-1.5,8.1-1.5c2,0,4,0.2,5.9,0.7c1.9,0.5,3.6,1.2,5.1,2.1c0.9,0.5,1.5,1.2,1.7,2.1
		c0.2,0.9,0.2,1.7-0.2,2.5c-0.3,0.8-0.9,1.3-1.7,1.7c-0.8,0.3-1.8,0.2-3-0.4c-1.2-0.6-2.4-1-3.8-1.3c-1.3-0.3-2.7-0.4-4.1-0.4
		c-2.3,0-4,0.4-5.3,1.3c-1.2,0.9-1.9,2-1.9,3.4c0,1,0.4,1.9,1.1,2.5c0.8,0.6,2.1,1.2,3.9,1.5L84,380c7,1.5,10.5,4.9,10.5,10.2
		c0,2.4-0.6,4.4-1.9,6.2c-1.3,1.8-3.1,3.1-5.4,4.1C84.8,401.5,82,401.9,78.9,401.9L78.9,401.9z"/>
	<path class="st0" d="M104.2,401.3c-2.9,0-4.4-1.4-4.4-4.3v-29.1c0-2.9,1.5-4.3,4.4-4.3h18.8c2.2,0,3.3,1.1,3.3,3.2
		s-1.1,3.3-3.3,3.3h-15.2v8.8h14c2.2,0,3.4,1.1,3.4,3.3s-1.1,3.3-3.4,3.3h-14v9.4h15.2c2.2,0,3.3,1.1,3.3,3.2s-1.1,3.3-3.3,3.3
		L104.2,401.3L104.2,401.3z"/>
	<path class="st0" d="M150.2,401.9c-3.7,0-7-0.8-9.9-2.4c-2.8-1.6-5-3.9-6.6-6.8c-1.6-2.9-2.3-6.3-2.3-10.3s0.8-7.4,2.3-10.3
		c1.6-2.9,3.7-5.2,6.6-6.8c2.8-1.6,6.1-2.4,9.9-2.4c3.8,0,7.1,0.8,9.9,2.4c2.8,1.6,5,3.9,6.6,6.8c1.6,2.9,2.3,6.3,2.3,10.2
		s-0.8,7.4-2.3,10.3s-3.8,5.2-6.6,6.8S154,401.9,150.2,401.9L150.2,401.9z M150.2,394.9c3.2,0,5.6-1.1,7.4-3.3
		c1.8-2.2,2.7-5.2,2.7-9.1c0-3.9-0.9-7-2.6-9.1c-1.8-2.2-4.2-3.3-7.4-3.3s-5.6,1.1-7.4,3.3s-2.7,5.2-2.7,9.1c0,3.9,0.9,6.9,2.7,9.1
		C144.6,393.7,147.1,394.9,150.2,394.9z"/>
	<path class="st0" d="M194.5,401.8c-1.2,0-2.2-0.3-2.8-1c-0.6-0.7-1-1.6-1-2.8v-31c0-1.3,0.3-2.2,1-2.9c0.7-0.7,1.7-1,2.9-1
		c1.1,0,1.9,0.2,2.6,0.6c0.6,0.4,1.2,1.1,1.8,2.1l11.6,21l11.6-21c0.5-1,1.1-1.7,1.8-2.1c0.6-0.4,1.5-0.6,2.5-0.6
		c1.2,0,2.2,0.3,2.8,1c0.7,0.7,1,1.6,1,2.9v31c0,2.6-1.3,3.9-3.8,3.9s-3.8-1.3-3.8-3.9v-19.7l-8.9,15.8c-0.4,0.7-0.9,1.2-1.4,1.5
		c-0.5,0.3-1.1,0.5-1.9,0.5c-0.8,0-1.4-0.2-1.9-0.5c-0.5-0.3-1-0.8-1.3-1.5l-8.9-15.7V398C198.2,400.5,197,401.8,194.5,401.8
		L194.5,401.8z"/>
	<path class="st0" d="M255.5,401.9c-3.7,0-7-0.8-9.9-2.4c-2.8-1.6-5-3.9-6.6-6.8c-1.6-2.9-2.3-6.3-2.3-10.3s0.8-7.4,2.3-10.3
		c1.6-2.9,3.7-5.2,6.6-6.8c2.8-1.6,6.1-2.4,9.9-2.4c3.8,0,7.1,0.8,9.9,2.4c2.8,1.6,5,3.9,6.6,6.8c1.6,2.9,2.3,6.3,2.3,10.2
		s-0.8,7.4-2.3,10.3c-1.6,2.9-3.8,5.2-6.6,6.8C262.6,401.1,259.3,401.9,255.5,401.9L255.5,401.9z M255.5,394.9
		c3.2,0,5.6-1.1,7.4-3.3c1.8-2.2,2.7-5.2,2.7-9.1c0-3.9-0.9-7-2.6-9.1c-1.8-2.2-4.2-3.3-7.4-3.3c-3.2,0-5.6,1.1-7.4,3.3
		c-1.8,2.2-2.7,5.2-2.7,9.1c0,3.9,0.9,6.9,2.7,9.1C249.9,393.7,252.4,394.9,255.5,394.9L255.5,394.9z"/>
	<path class="st0" d="M285.2,401.3c-2.9,0-4.4-1.4-4.4-4.3v-29.1c0-2.9,1.5-4.3,4.4-4.3h10.5c6.5,0,11.5,1.6,15.1,4.9
		c3.6,3.3,5.3,7.9,5.3,14s-1.8,10.7-5.3,14c-3.6,3.3-8.6,4.9-15.1,4.9L285.2,401.3L285.2,401.3z M289.2,394.5h6
		c8.1,0,12.1-4,12.1-12.1c0-8.1-4-12.1-12.1-12.1h-6V394.5z"/>
	<path class="st0" d="M327,401.3c-2.9,0-4.4-1.4-4.4-4.3v-29.1c0-2.9,1.5-4.3,4.4-4.3h18.8c2.2,0,3.3,1.1,3.3,3.2s-1.1,3.3-3.3,3.3
		h-15.2v8.8h14c2.2,0,3.4,1.1,3.4,3.3s-1.1,3.3-3.4,3.3h-14v9.4h15.2c2.2,0,3.3,1.1,3.3,3.2s-1.1,3.3-3.3,3.3L327,401.3L327,401.3z"
		/>
	<path class="st0" d="M359.5,401.8c-1.4,0-2.4-0.4-3.1-1.1c-0.7-0.8-1.1-1.8-1.1-3.2v-29.8c0-2.8,1.4-4.2,4.3-4.2h13.1
		c4.2,0,7.5,1,9.8,3.1s3.5,4.9,3.5,8.5c0,2.8-0.7,5.2-2.2,7.1c-1.5,1.9-3.5,3.2-6.2,3.8c1.9,0.6,3.5,1.9,4.7,4.1l3.4,6.2
		c0.8,1.4,0.9,2.6,0.4,3.8c-0.5,1.2-1.6,1.7-3.4,1.7c-1.2,0-2.2-0.3-2.9-0.8c-0.8-0.5-1.4-1.3-1.9-2.3l-5.2-9.5c-0.5-1-1.2-1.7-2-2
		c-0.8-0.4-1.7-0.5-2.8-0.5h-4.1v10.8c0,1.4-0.3,2.4-1,3.2C361.9,401.5,360.9,401.8,359.5,401.8L359.5,401.8z M363.7,380.7h7.5
		c4.5,0,6.7-1.8,6.7-5.4c0-3.6-2.3-5.3-6.7-5.3h-7.5V380.7z"/>
	<path class="st0" d="M396.7,401.8c-2.6,0-3.9-1.3-3.9-4v-30.6c0-1.4,0.3-2.4,1-3.1c0.7-0.7,1.6-1.1,2.7-1.1c0.9,0,1.7,0.2,2.2,0.6
		c0.5,0.4,1.2,1,1.8,1.9l17.5,22.1V367c0-2.6,1.3-4,3.9-4s3.9,1.3,3.9,4V398c0,1.2-0.3,2.1-0.9,2.8s-1.4,1-2.5,1
		c-1,0-1.8-0.2-2.4-0.6c-0.6-0.4-1.2-1-1.9-1.9l-17.5-22.1v20.6C400.6,400.5,399.3,401.8,396.7,401.8L396.7,401.8z"/>
	<path class="st0" d="M451.2,401.9c-3.7,0-7-0.8-9.9-2.4c-2.8-1.6-5-3.9-6.6-6.8c-1.6-2.9-2.3-6.3-2.3-10.3s0.8-7.4,2.3-10.3
		c1.6-2.9,3.7-5.2,6.6-6.8c2.8-1.6,6.1-2.4,9.9-2.4c3.8,0,7.1,0.8,9.9,2.4c2.8,1.6,5,3.9,6.6,6.8c1.6,2.9,2.3,6.3,2.3,10.2
		s-0.8,7.4-2.3,10.3c-1.6,2.9-3.8,5.2-6.6,6.8C458.2,401.1,454.9,401.9,451.2,401.9L451.2,401.9z M451.2,394.9
		c3.2,0,5.6-1.1,7.4-3.3c1.8-2.2,2.7-5.2,2.7-9.1c0-3.9-0.9-7-2.6-9.1s-4.2-3.3-7.4-3.3s-5.6,1.1-7.4,3.3s-2.7,5.2-2.7,9.1
		c0,3.9,0.9,6.9,2.7,9.1C445.6,393.8,448,394.9,451.2,394.9L451.2,394.9z"/>
</g>
<path class="st0" d="M470.9,296.1l-72.7-120.6c-6.6-12-21.2-19.3-36.3-10l-10.8,7.3c-11.5,7.1-20.8-5.1-24.3-10.8L250.9,39.7
	c-16.4-26.7-57.8-27-73.9-0.1L22,292.5c-12.2,19.8-4.3,49.9,29.8,49.9l32.9,0.5c10,0,16-3,20-10s9.2-10,14-10h65c9,0,14,2,17.7,8.1
	c5.3,8.9,12.3,10.9,21.3,10.9l37.2,0.5c13,0,23.5-10.5,23.5-23.5v-62.5c0-5.4,5.4-6.1,8.3-1.5l2,3c12,17,24,27.9,40,19.9l5.5-3.7
	c5.2-3.4,12.9,0.1,15.7,5.6l19,39.6c7.1,14.1,21.5,23.1,37.3,23.1h28.3C469.9,342.9,484,318.9,470.9,296.1L470.9,296.1z
	 M257.6,303.2c0.2,10.6-3.6,17-14.2,17h-10c-11.4-0.3-14.4-4.3-20.4-12.3s-11-11-20-11h-80c-6.8,0-12,2-19,12s-10,11-18.6,11.3H55.6
	c-12.9,0-15.2-6.2-9.3-16.4L195,57.5c8-13.3,27.2-13.5,35.5-0.4l82.6,130.5c10.8,15.8,25.1,24.8,45.5,11.4l2.4-1.6
	c10.8-5.9,19.3-1.3,23,4.7l57.7,97c9.7,15.2-0.8,21.2-12,21.2l-12.5,0.6c-9.3,0-17.1-7.2-21.3-15.5l-26.1-54.9
	c-3.9-7.7-15.6-17.2-28.9-9.1l-7.2,5c-11.4,6.4-22.8,2.3-37.8-20.4L220.8,96.6c-3.7-6.3-12.8-6.1-16.3,0.2l-85.1,152
	c-5.3,9.5,1.5,21.3,12.5,21.3h70.2c9.6,0,17.5-7.8,17.5-17.5v-88.3c0-6.9,9.1-9.4,12.6-3.5l25.3,46L257.6,303.2L257.6,303.2z
	 M193.4,188.6v46.8c0,6.1-5,11.1-11.1,11.1h-17.5c-6.5,0-10.7-6.9-7.6-12.7l25.4-47.9C185.4,180.6,193.4,182.6,193.4,188.6
	L193.4,188.6z"/>
</svg>
