<?xml version="1.0" encoding="UTF-8"?>
<svg id="Capa_1" data-name="Capa 1" xmlns="http://www.w3.org/2000/svg" viewBox="0 0 447.63 363.71">
  <defs>
    <style>
      .cls-1 {
        isolation: isolate;
      }

      .cls-2 {
        fill: #32cd32;
        stroke-width: 0px;
      }
    </style>
  </defs>
  <path class="cls-2" d="m444.31,285.7l-73-127.6c-6.6-12-22.4-15.2-33.3-6.8l-9.5,7.4c-5.3,4.1-12.9,2.7-16.4-3L228.71,19.9c-16.4-26.7-55.4-26.5-71.5.4L4.61,274.7c-12.8,21.3,2.6,48.4,27.4,48.4l32.9.5c10,0,16-3,20-10s9.2-10,14-10h68c9,0,14,2,17.7,8.1,5.3,8.9,9.3,10.9,18.3,10.9l37.2.5c13,0,23.5-10.5,23.5-23.5v-62.5c0-5.4,5.4-6.1,8.3-1.5l2,3c12,17,26,20,42,12l4-2c5.2-3.4,9.1-.4,11.9,5.1l22.2,46.3c7.1,14.1,21.5,23.1,37.3,23.1h31.2c19.3,0,31.3-20.7,21.8-37.4Zm-34.4,15.2h-17.1c-9.3,0-17.8-5.3-22-13.6l-28.7-57.2c-3.9-7.7-13.8-10.1-20.8-4.9h0c-11.4,6.4-26.4,11.4-37.1-7.4l-83.2-140.5c-3.7-6.3-12.8-6.1-16.3.2l-85.1,152c-5.3,9.5,1.5,21.3,12.5,21.3h70.2c9.6,0,17.5-7.8,17.5-17.5v-98.3c0-6.9,9.1-9.4,12.6-3.5l28.1,47.4c.1.2.2.5.2.8l1.7,102c.2,10.6-8.3,19.2-18.9,19.2h-10c-11.4-.3-13.4-4.3-19.4-12.3s-12-11-21-11h-80c-6.8,0-12,2-19,12s-10,11-18.6,11.3h-19.7c-8.4,0-13.6-9.2-9.3-16.4L175.21,38.2c8-13.3,27.2-13.5,35.5-.4l84.3,133.2c7.9,12.5,26.1,16.4,38,7.6l8.1-7.5c5.7-4.2,13.7-2.6,17.4,3.4l63.4,105.2c5.6,9.3-1.1,21.2-12,21.2Zm-236.3-131.6v46.8c0,6.1-5,11.1-11.1,11.1h-17.5c-6.5,0-10.7-6.9-7.6-12.7l25.4-47.9c2.8-5.3,10.8-3.3,10.8,2.7Z"/>
  <g class="cls-1">
    <path class="cls-2" d="m2.99,363.63c-1.18,0-2.02-.39-2.53-1.17-.51-.78-.49-1.75.04-2.89l10.8-23.51c.45-.95.98-1.64,1.6-2.07.62-.43,1.34-.65,2.15-.65s1.53.22,2.15.65c.62.43,1.14,1.12,1.56,2.07l10.88,23.51c.53,1.17.56,2.14.06,2.91-.49.77-1.29,1.15-2.38,1.15-.96,0-1.69-.22-2.21-.67-.52-.45-.98-1.15-1.37-2.1l-1.77-4.02h-13.88l-1.73,4.02c-.42.98-.87,1.68-1.35,2.12-.48.43-1.15.65-2.02.65Zm11.98-23l-4.68,11.15h9.53l-4.77-11.15h-.08Z"/>
    <path class="cls-2" d="m44.17,363.71c-1.8,0-3.6-.2-5.4-.59-1.8-.39-3.36-.96-4.68-1.72-.79-.42-1.28-.98-1.48-1.7-.2-.71-.15-1.4.13-2.07.28-.67.73-1.15,1.35-1.42s1.36-.21,2.24.21c1.12.64,2.38,1.12,3.75,1.42,1.38.31,2.74.46,4.09.46,2.02,0,3.48-.31,4.37-.94.89-.63,1.33-1.42,1.33-2.37,0-.81-.31-1.45-.93-1.93-.62-.47-1.7-.88-3.25-1.21l-4.77-1.01c-5.32-1.12-7.97-3.85-7.97-8.21,0-1.87.51-3.51,1.52-4.92,1.01-1.41,2.43-2.51,4.24-3.29s3.92-1.17,6.31-1.17c1.57,0,3.12.19,4.64.57s2.85.93,4.01,1.66c.7.42,1.14.96,1.31,1.63.17.67.12,1.31-.15,1.93-.27.61-.72,1.05-1.35,1.3-.63.25-1.41.15-2.34-.29-.93-.47-1.91-.82-2.95-1.05-1.04-.22-2.11-.34-3.21-.34-1.77,0-3.14.34-4.11,1.03s-1.46,1.57-1.46,2.66c0,.81.3,1.47.89,1.97.59.5,1.62.91,3.08,1.21l4.77,1.01c5.46,1.17,8.18,3.83,8.18,7.96,0,1.84-.5,3.46-1.5,4.84-1,1.38-2.4,2.46-4.22,3.23s-3.96,1.15-6.43,1.15Z"/>
    <path class="cls-2" d="m64,363.25c-2.28,0-3.42-1.13-3.42-3.39v-22.75c0-2.26,1.14-3.39,3.42-3.39h14.72c1.72,0,2.57.84,2.57,2.51s-.86,2.56-2.57,2.56h-11.9v6.91h10.93c1.74,0,2.62.85,2.62,2.56s-.87,2.56-2.62,2.56h-10.93v7.37h11.9c1.72,0,2.57.84,2.57,2.51s-.86,2.56-2.57,2.56h-14.72Z"/>
    <path class="cls-2" d="m99.9,363.71c-2.93,0-5.49-.63-7.7-1.91-2.21-1.27-3.92-3.04-5.15-5.32-1.22-2.28-1.83-4.95-1.83-8.02s.61-5.75,1.83-8.02c1.22-2.28,2.93-4.04,5.13-5.3,2.19-1.26,4.77-1.88,7.72-1.88s5.53.63,7.74,1.88c2.21,1.26,3.92,3.02,5.15,5.3,1.22,2.28,1.83,4.94,1.83,7.98s-.61,5.75-1.83,8.04c-1.22,2.29-2.94,4.07-5.15,5.34-2.21,1.27-4.79,1.91-7.74,1.91Zm0-5.53c2.47,0,4.41-.86,5.8-2.58s2.09-4.1,2.09-7.14-.69-5.45-2.07-7.14c-1.38-1.69-3.32-2.54-5.82-2.54s-4.37.85-5.76,2.54c-1.39,1.69-2.09,4.07-2.09,7.14s.7,5.43,2.09,7.14,3.31,2.58,5.76,2.58Z"/>
    <path class="cls-2" d="m134.49,363.63c-.96,0-1.69-.27-2.19-.8s-.76-1.27-.76-2.22v-24.26c0-.98.27-1.72.8-2.24.53-.52,1.29-.78,2.28-.78.84,0,1.51.17,2,.5.49.34.95.88,1.37,1.63l9.03,16.38,9.03-16.38c.42-.75.88-1.3,1.37-1.63.49-.33,1.15-.5,1.96-.5.96,0,1.69.26,2.21.78.52.52.78,1.26.78,2.24v24.26c0,2.01-.98,3.02-2.95,3.02s-3-1.01-3-3.02v-15.38l-6.92,12.36c-.34.53-.7.93-1.08,1.19-.38.27-.88.4-1.5.4s-1.12-.13-1.52-.4c-.39-.27-.75-.66-1.05-1.19l-6.92-12.24v15.25c0,2.01-.98,3.02-2.95,3.02Z"/>
    <path class="cls-2" d="m182.2,363.71c-2.93,0-5.49-.63-7.7-1.91-2.21-1.27-3.92-3.04-5.15-5.32-1.22-2.28-1.83-4.95-1.83-8.02s.61-5.75,1.83-8.02c1.22-2.28,2.93-4.04,5.13-5.3,2.19-1.26,4.77-1.88,7.72-1.88s5.53.63,7.74,1.88c2.21,1.26,3.92,3.02,5.15,5.3,1.22,2.28,1.83,4.94,1.83,7.98s-.61,5.75-1.83,8.04c-1.22,2.29-2.94,4.07-5.15,5.34-2.21,1.27-4.79,1.91-7.74,1.91Zm0-5.53c2.47,0,4.41-.86,5.8-2.58s2.09-4.1,2.09-7.14-.69-5.45-2.07-7.14c-1.38-1.69-3.32-2.54-5.82-2.54s-4.37.85-5.76,2.54c-1.39,1.69-2.09,4.07-2.09,7.14s.7,5.43,2.09,7.14,3.31,2.58,5.76,2.58Z"/>
    <path class="cls-2" d="m205.4,363.25c-2.28,0-3.42-1.13-3.42-3.39v-22.75c0-2.26,1.14-3.39,3.42-3.39h8.23c5.06,0,8.99,1.28,11.77,3.83,2.78,2.56,4.18,6.2,4.18,10.92s-1.39,8.37-4.18,10.94c-2.78,2.57-6.71,3.85-11.77,3.85h-8.23Zm3.12-5.32h4.72c6.33,0,9.49-3.16,9.49-9.47s-3.16-9.43-9.49-9.43h-4.72v18.9Z"/>
    <path class="cls-2" d="m238.05,363.25c-2.28,0-3.42-1.13-3.42-3.39v-22.75c0-2.26,1.14-3.39,3.42-3.39h14.72c1.71,0,2.57.84,2.57,2.51s-.86,2.56-2.57,2.56h-11.9v6.91h10.93c1.74,0,2.62.85,2.62,2.56s-.87,2.56-2.62,2.56h-10.93v7.37h11.9c1.71,0,2.57.84,2.57,2.51s-.86,2.56-2.57,2.56h-14.72Z"/>
    <path class="cls-2" d="m263.45,363.63c-1.07,0-1.88-.29-2.45-.88s-.84-1.41-.84-2.47v-23.25c0-2.21,1.11-3.31,3.33-3.31h10.25c3.32,0,5.88.8,7.68,2.39,1.8,1.59,2.7,3.81,2.7,6.66,0,2.21-.57,4.04-1.71,5.51-1.14,1.47-2.76,2.47-4.87,3,1.49.45,2.71,1.52,3.67,3.23l2.62,4.82c.59,1.06.7,2.05.34,2.95-.37.91-1.25,1.36-2.66,1.36-.93,0-1.69-.2-2.28-.59-.59-.39-1.1-.99-1.52-1.8l-4.05-7.42c-.42-.78-.94-1.31-1.56-1.59s-1.35-.42-2.19-.42h-3.21v8.46c0,1.06-.27,1.88-.82,2.47-.55.59-1.36.88-2.43.88Zm3.25-16.51h5.86c3.51,0,5.27-1.4,5.27-4.19s-1.76-4.15-5.27-4.15h-5.86v8.34Z"/>
    <path class="cls-2" d="m292.56,363.63c-2.02,0-3.04-1.05-3.04-3.14v-23.88c0-1.06.26-1.87.78-2.43s1.22-.84,2.09-.84c.73,0,1.31.15,1.73.44s.9.78,1.43,1.45l13.67,17.3v-16.09c0-2.07,1.01-3.1,3.04-3.1s3.04,1.03,3.04,3.1v24.18c0,.92-.24,1.66-.72,2.2-.48.54-1.12.82-1.94.82s-1.41-.15-1.88-.46c-.46-.31-.96-.8-1.5-1.47l-13.67-17.3v16.09c0,2.1-1.01,3.14-3.04,3.14Z"/>
    <path class="cls-2" d="m335.08,363.71c-2.92,0-5.49-.63-7.7-1.91-2.21-1.27-3.92-3.04-5.15-5.32s-1.83-4.95-1.83-8.02.61-5.75,1.83-8.02c1.22-2.28,2.93-4.04,5.13-5.3,2.19-1.26,4.77-1.88,7.72-1.88s5.53.63,7.74,1.88c2.21,1.26,3.92,3.02,5.15,5.3,1.22,2.28,1.83,4.94,1.83,7.98s-.61,5.75-1.83,8.04c-1.22,2.29-2.94,4.07-5.15,5.34-2.21,1.27-4.79,1.91-7.74,1.91Zm0-5.53c2.47,0,4.41-.86,5.8-2.58,1.39-1.72,2.09-4.1,2.09-7.14s-.69-5.45-2.07-7.14c-1.38-1.69-3.32-2.54-5.82-2.54s-4.37.85-5.76,2.54c-1.39,1.69-2.09,4.07-2.09,7.14s.7,5.43,2.09,7.14c1.39,1.72,3.31,2.58,5.76,2.58Z"/>
    <path class="cls-2" d="m377.27,363.71c-1.8,0-3.6-.2-5.4-.59-1.8-.39-3.36-.96-4.68-1.72-.79-.42-1.28-.98-1.48-1.7-.2-.71-.16-1.4.13-2.07.28-.67.73-1.15,1.35-1.42.62-.28,1.36-.21,2.24.21,1.12.64,2.38,1.12,3.75,1.42,1.38.31,2.74.46,4.09.46,2.03,0,3.48-.31,4.37-.94.89-.63,1.33-1.42,1.33-2.37,0-.81-.31-1.45-.93-1.93-.62-.47-1.7-.88-3.25-1.21l-4.77-1.01c-5.32-1.12-7.97-3.85-7.97-8.21,0-1.87.51-3.51,1.52-4.92,1.01-1.41,2.43-2.51,4.24-3.29,1.81-.78,3.92-1.17,6.31-1.17,1.58,0,3.12.19,4.64.57s2.85.93,4.01,1.66c.7.42,1.14.96,1.31,1.63.17.67.12,1.31-.15,1.93-.27.61-.72,1.05-1.35,1.3-.63.25-1.41.15-2.34-.29-.93-.47-1.91-.82-2.95-1.05-1.04-.22-2.11-.34-3.21-.34-1.77,0-3.14.34-4.11,1.03-.97.68-1.46,1.57-1.46,2.66,0,.81.29,1.47.89,1.97s1.62.91,3.08,1.21l4.77,1.01c5.46,1.17,8.18,3.83,8.18,7.96,0,1.84-.5,3.46-1.5,4.84-1,1.38-2.4,2.46-4.22,3.23s-3.96,1.15-6.43,1.15Z"/>
    <path class="cls-2" d="m394.23,363.63c-1.18,0-2.02-.39-2.53-1.17-.51-.78-.49-1.75.04-2.89l10.8-23.51c.45-.95.98-1.64,1.6-2.07.62-.43,1.33-.65,2.15-.65s1.53.22,2.15.65c.62.43,1.14,1.12,1.56,2.07l10.88,23.51c.53,1.17.55,2.14.06,2.91-.49.77-1.29,1.15-2.38,1.15-.96,0-1.7-.22-2.21-.67-.52-.45-.98-1.15-1.37-2.1l-1.77-4.02h-13.88l-1.73,4.02c-.42.98-.87,1.68-1.35,2.12-.48.43-1.15.65-2.03.65Zm11.98-23l-4.68,11.15h9.53l-4.77-11.15h-.08Z"/>
    <path class="cls-2" d="m435.4,363.71c-1.8,0-3.6-.2-5.4-.59-1.8-.39-3.36-.96-4.68-1.72-.79-.42-1.28-.98-1.48-1.7-.2-.71-.16-1.4.13-2.07.28-.67.73-1.15,1.35-1.42.62-.28,1.36-.21,2.24.21,1.12.64,2.38,1.12,3.75,1.42,1.38.31,2.74.46,4.09.46,2.03,0,3.48-.31,4.37-.94.89-.63,1.33-1.42,1.33-2.37,0-.81-.31-1.45-.93-1.93-.62-.47-1.7-.88-3.25-1.21l-4.77-1.01c-5.32-1.12-7.97-3.85-7.97-8.21,0-1.87.51-3.51,1.52-4.92,1.01-1.41,2.43-2.51,4.24-3.29,1.81-.78,3.92-1.17,6.31-1.17,1.58,0,3.12.19,4.64.57s2.85.93,4.01,1.66c.7.42,1.14.96,1.31,1.63.17.67.12,1.31-.15,1.93-.27.61-.72,1.05-1.35,1.3-.63.25-1.41.15-2.34-.29-.93-.47-1.91-.82-2.95-1.05-1.04-.22-2.11-.34-3.21-.34-1.77,0-3.14.34-4.11,1.03-.97.68-1.46,1.57-1.46,2.66,0,.81.29,1.47.89,1.97s1.62.91,3.08,1.21l4.77,1.01c5.46,1.17,8.18,3.83,8.18,7.96,0,1.84-.5,3.46-1.5,4.84-1,1.38-2.4,2.46-4.22,3.23s-3.96,1.15-6.43,1.15Z"/>
  </g>
</svg>