<?xml version="1.0" encoding="UTF-8"?>
<svg id="Capa_1" data-name="Capa 1" xmlns="http://www.w3.org/2000/svg" viewBox="0 0 459.19 387.35">
  <defs>
    <style>
      .cls-1 {
        fill: #fff;
        stroke-width: 0px;
      }
    </style>
  </defs>
  <g>
    <path class="cls-1" d="m9.59,387.25c-1.5,0-2.6-.5-3.2-1.5s-.6-2.2.1-3.7l13.8-30.1c.6-1.2,1.3-2.1,2-2.6.8-.6,1.7-.8,2.8-.8s2,.3,2.8.8c.8.6,1.5,1.4,2,2.6l13.9,30.1c.7,1.5.7,2.7.1,3.7-.6,1-1.7,1.5-3,1.5-1.2,0-2.2-.3-2.8-.9-.7-.6-1.3-1.5-1.8-2.7l-2.3-5.1h-17.9l-2.2,5.1c-.5,1.3-1.1,2.1-1.7,2.7-.7.6-1.5.9-2.6.9h0Zm15.3-29.4l-6,14.3h12.2l-6.1-14.3h-.1Z"/>
    <path class="cls-1" d="m62.29,387.35c-2.3,0-4.6-.3-6.9-.8s-4.3-1.2-6-2.2c-1-.5-1.6-1.3-1.9-2.2-.3-.9-.2-1.8.2-2.6.4-.9.9-1.5,1.7-1.8s1.7-.3,2.9.3c1.4.8,3,1.4,4.8,1.8s3.5.6,5.2.6c2.6,0,4.5-.4,5.6-1.2s1.7-1.8,1.7-3c0-1-.4-1.9-1.2-2.5-.8-.6-2.2-1.1-4.2-1.5l-6.1-1.3c-6.8-1.4-10.2-4.9-10.2-10.5,0-2.4.7-4.5,1.9-6.3,1.3-1.8,3.1-3.2,5.4-4.2s5-1.5,8.1-1.5c2,0,4,.2,5.9.7s3.6,1.2,5.1,2.1c.9.5,1.5,1.2,1.7,2.1s.2,1.7-.2,2.5c-.3.8-.9,1.3-1.7,1.7-.8.3-1.8.2-3-.4s-2.4-1-3.8-1.3c-1.3-.3-2.7-.4-4.1-.4-2.3,0-4,.4-5.3,1.3-1.2.9-1.9,2-1.9,3.4,0,1,.4,1.9,1.1,2.5.8.6,2.1,1.2,3.9,1.5l6.4,1.3c7,1.5,10.5,4.9,10.5,10.2,0,2.4-.6,4.4-1.9,6.2-1.3,1.8-3.1,3.1-5.4,4.1-2.4,1-5.2,1.4-8.3,1.4h0Z"/>
    <path class="cls-1" d="m87.59,386.75c-2.9,0-4.4-1.4-4.4-4.3v-29.1c0-2.9,1.5-4.3,4.4-4.3h18.8c2.2,0,3.3,1.1,3.3,3.2s-1.1,3.3-3.3,3.3h-15.2v8.8h14c2.2,0,3.4,1.1,3.4,3.3s-1.1,3.3-3.4,3.3h-14v9.4h15.2c2.2,0,3.3,1.1,3.3,3.2s-1.1,3.3-3.3,3.3l-18.8-.1h0Z"/>
    <path class="cls-1" d="m133.59,387.35c-3.7,0-7-.8-9.9-2.4-2.8-1.6-5-3.9-6.6-6.8s-2.3-6.3-2.3-10.3.8-7.4,2.3-10.3c1.6-2.9,3.7-5.2,6.6-6.8,2.8-1.6,6.1-2.4,9.9-2.4s7.1.8,9.9,2.4c2.8,1.6,5,3.9,6.6,6.8s2.3,6.3,2.3,10.2-.8,7.4-2.3,10.3-3.8,5.2-6.6,6.8-6.1,2.5-9.9,2.5h0Zm0-7c3.2,0,5.6-1.1,7.4-3.3,1.8-2.2,2.7-5.2,2.7-9.1s-.9-7-2.6-9.1c-1.8-2.2-4.2-3.3-7.4-3.3s-5.6,1.1-7.4,3.3-2.7,5.2-2.7,9.1.9,6.9,2.7,9.1c1.7,2.1,4.2,3.3,7.3,3.3Z"/>
    <path class="cls-1" d="m177.89,387.25c-1.2,0-2.2-.3-2.8-1s-1-1.6-1-2.8v-31c0-1.3.3-2.2,1-2.9.7-.7,1.7-1,2.9-1,1.1,0,1.9.2,2.6.6.6.4,1.2,1.1,1.8,2.1l11.6,21,11.6-21c.5-1,1.1-1.7,1.8-2.1.6-.4,1.5-.6,2.5-.6,1.2,0,2.2.3,2.8,1,.7.7,1,1.6,1,2.9v31c0,2.6-1.3,3.9-3.8,3.9s-3.8-1.3-3.8-3.9v-19.7l-8.9,15.8c-.4.7-.9,1.2-1.4,1.5s-1.1.5-1.9.5-1.4-.2-1.9-.5-1-.8-1.3-1.5l-8.9-15.7v19.6c-.2,2.5-1.4,3.8-3.9,3.8h0Z"/>
    <path class="cls-1" d="m238.89,387.35c-3.7,0-7-.8-9.9-2.4-2.8-1.6-5-3.9-6.6-6.8s-2.3-6.3-2.3-10.3.8-7.4,2.3-10.3c1.6-2.9,3.7-5.2,6.6-6.8,2.8-1.6,6.1-2.4,9.9-2.4s7.1.8,9.9,2.4,5,3.9,6.6,6.8,2.3,6.3,2.3,10.2-.8,7.4-2.3,10.3c-1.6,2.9-3.8,5.2-6.6,6.8-2.8,1.7-6.1,2.5-9.9,2.5h0Zm0-7c3.2,0,5.6-1.1,7.4-3.3,1.8-2.2,2.7-5.2,2.7-9.1s-.9-7-2.6-9.1c-1.8-2.2-4.2-3.3-7.4-3.3s-5.6,1.1-7.4,3.3c-1.8,2.2-2.7,5.2-2.7,9.1s.9,6.9,2.7,9.1c1.7,2.1,4.2,3.3,7.3,3.3h0Z"/>
    <path class="cls-1" d="m268.59,386.75c-2.9,0-4.4-1.4-4.4-4.3v-29.1c0-2.9,1.5-4.3,4.4-4.3h10.5c6.5,0,11.5,1.6,15.1,4.9s5.3,7.9,5.3,14-1.8,10.7-5.3,14c-3.6,3.3-8.6,4.9-15.1,4.9l-10.5-.1h0Zm4-6.8h6c8.1,0,12.1-4,12.1-12.1s-4-12.1-12.1-12.1h-6v24.2Z"/>
    <path class="cls-1" d="m310.39,386.75c-2.9,0-4.4-1.4-4.4-4.3v-29.1c0-2.9,1.5-4.3,4.4-4.3h18.8c2.2,0,3.3,1.1,3.3,3.2s-1.1,3.3-3.3,3.3h-15.2v8.8h14c2.2,0,3.4,1.1,3.4,3.3s-1.1,3.3-3.4,3.3h-14v9.4h15.2c2.2,0,3.3,1.1,3.3,3.2s-1.1,3.3-3.3,3.3l-18.8-.1h0Z"/>
    <path class="cls-1" d="m342.89,387.25c-1.4,0-2.4-.4-3.1-1.1-.7-.8-1.1-1.8-1.1-3.2v-29.8c0-2.8,1.4-4.2,4.3-4.2h13.1c4.2,0,7.5,1,9.8,3.1s3.5,4.9,3.5,8.5c0,2.8-.7,5.2-2.2,7.1s-3.5,3.2-6.2,3.8c1.9.6,3.5,1.9,4.7,4.1l3.4,6.2c.8,1.4.9,2.6.4,3.8-.5,1.2-1.6,1.7-3.4,1.7-1.2,0-2.2-.3-2.9-.8-.8-.5-1.4-1.3-1.9-2.3l-5.2-9.5c-.5-1-1.2-1.7-2-2-.8-.4-1.7-.5-2.8-.5h-4.1v10.8c0,1.4-.3,2.4-1,3.2-.9.8-1.9,1.1-3.3,1.1h0Zm4.2-21.1h7.5c4.5,0,6.7-1.8,6.7-5.4s-2.3-5.3-6.7-5.3h-7.5v10.7Z"/>
    <path class="cls-1" d="m380.09,387.25c-2.6,0-3.9-1.3-3.9-4v-30.6c0-1.4.3-2.4,1-3.1s1.6-1.1,2.7-1.1c.9,0,1.7.2,2.2.6s1.2,1,1.8,1.9l17.5,22.1v-20.6c0-2.6,1.3-4,3.9-4s3.9,1.3,3.9,4v31c0,1.2-.3,2.1-.9,2.8s-1.4,1-2.5,1c-1,0-1.8-.2-2.4-.6s-1.2-1-1.9-1.9l-17.5-22.1v20.6c0,2.7-1.3,4-3.9,4h0Z"/>
    <path class="cls-1" d="m434.59,387.35c-3.7,0-7-.8-9.9-2.4-2.8-1.6-5-3.9-6.6-6.8s-2.3-6.3-2.3-10.3.8-7.4,2.3-10.3c1.6-2.9,3.7-5.2,6.6-6.8,2.8-1.6,6.1-2.4,9.9-2.4s7.1.8,9.9,2.4,5,3.9,6.6,6.8,2.3,6.3,2.3,10.2-.8,7.4-2.3,10.3c-1.6,2.9-3.8,5.2-6.6,6.8-2.9,1.7-6.2,2.5-9.9,2.5h0Zm0-7c3.2,0,5.6-1.1,7.4-3.3,1.8-2.2,2.7-5.2,2.7-9.1s-.9-7-2.6-9.1-4.2-3.3-7.4-3.3-5.6,1.1-7.4,3.3-2.7,5.2-2.7,9.1.9,6.9,2.7,9.1c1.7,2.2,4.1,3.3,7.3,3.3h0Z"/>
  </g>
  <path class="cls-1" d="m454.29,276.55l-72.7-120.6c-6.6-12-21.2-19.3-36.3-10l-10.8,7.3c-11.5,7.1-20.8-5.1-24.3-10.8L234.29,20.15c-16.4-26.7-57.8-27-73.9-.1L5.39,272.95c-12.2,19.8-4.3,49.9,29.8,49.9l32.9.5c10,0,16-3,20-10s9.2-10,14-10h65c9,0,14,2,17.7,8.1,5.3,8.9,12.3,10.9,21.3,10.9l37.2.5c13,0,23.5-10.5,23.5-23.5v-62.5c0-5.4,5.4-6.1,8.3-1.5l2,3c12,17,24,27.9,40,19.9l5.5-3.7c5.2-3.4,12.9.1,15.7,5.6l19,39.6c7.1,14.1,21.5,23.1,37.3,23.1h28.3c30.4.5,44.5-23.5,31.4-46.3h0Zm-213.3,7.1c.2,10.6-3.6,17-14.2,17h-10c-11.4-.3-14.4-4.3-20.4-12.3s-11-11-20-11h-80c-6.8,0-12,2-19,12s-10,11-18.6,11.3h-19.8c-12.9,0-15.2-6.2-9.3-16.4L178.39,37.95c8-13.3,27.2-13.5,35.5-.4l82.6,130.5c10.8,15.8,25.1,24.8,45.5,11.4l2.4-1.6c10.8-5.9,19.3-1.3,23,4.7l57.7,97c9.7,15.2-.8,21.2-12,21.2l-12.5.6c-9.3,0-17.1-7.2-21.3-15.5l-26.1-54.9c-3.9-7.7-15.6-17.2-28.9-9.1l-7.2,5c-11.4,6.4-22.8,2.3-37.8-20.4l-75.1-129.4c-3.7-6.3-12.8-6.1-16.3.2l-85.1,152c-5.3,9.5,1.5,21.3,12.5,21.3h70.2c9.6,0,17.5-7.8,17.5-17.5v-88.3c0-6.9,9.1-9.4,12.6-3.5l25.3,46,.1,96.4h0Zm-64.2-114.6v46.8c0,6.1-5,11.1-11.1,11.1h-17.5c-6.5,0-10.7-6.9-7.6-12.7l25.4-47.9c2.8-5.3,10.8-3.3,10.8,2.7h0Z"/>
</svg>