<?xml version="1.0" encoding="utf-8"?>
<!-- Generator: Adobe Illustrator 28.0.0, SVG Export Plug-In . SVG Version: 6.00 Build 0)  -->
<svg version="1.1" id="Capa_1" xmlns="http://www.w3.org/2000/svg" xmlns:xlink="http://www.w3.org/1999/xlink" x="0px" y="0px"
	 viewBox="0 0 459.2 323.4" style="enable-background:new 0 0 459.2 323.4;" xml:space="preserve">
<style type="text/css">
	.st0{fill:#FFFFFF;}
</style>
<path class="st0" d="M454.3,276.6l-72.7-120.6c-6.6-12-21.2-19.3-36.3-10l-10.8,7.3c-11.5,7.1-20.8-5.1-24.3-10.8L234.3,20.1
	c-16.4-26.7-57.8-27-73.9-0.1L5.4,273c-12.2,19.8-4.3,49.9,29.8,49.9l32.9,0.5c10,0,16-3,20-10s9.2-10,14-10h65c9,0,14,2,17.7,8.1
	c5.3,8.9,12.3,10.9,21.3,10.9l37.2,0.5c13,0,23.5-10.5,23.5-23.5v-62.5c0-5.4,5.4-6.1,8.3-1.5l2,3c12,17,24,27.9,40,19.9l5.5-3.7
	c5.2-3.4,12.9,0.1,15.7,5.7l19,39.6c7.1,14.1,21.5,23.1,37.3,23.1h28.3C453.3,323.3,467.4,299.3,454.3,276.6L454.3,276.6z
	 M241,283.7c0.2,10.6-3.6,17-14.2,17h-10c-11.4-0.3-14.4-4.3-20.4-12.3s-11-11-20-11h-80c-6.8,0-12,2-19,12s-10,11-18.6,11.3H39
	c-12.9,0-15.2-6.2-9.3-16.4L178.4,38c8-13.3,27.2-13.5,35.5-0.4L296.5,168c10.8,15.8,25.1,24.8,45.5,11.4l2.4-1.6
	c10.8-5.9,19.3-1.3,23,4.7l57.7,97c9.7,15.2-0.8,21.2-12,21.2l-12.5,0.6c-9.3,0-17.1-7.2-21.3-15.5l-26.1-54.9
	c-3.9-7.7-15.6-17.2-28.9-9.1l-7.2,5c-11.4,6.4-22.8,2.3-37.8-20.4L204.2,77.1c-3.7-6.3-12.8-6.1-16.3,0.2l-85.1,152
	c-5.3,9.5,1.5,21.3,12.5,21.3h70.2c9.6,0,17.5-7.8,17.5-17.5v-88.3c0-6.9,9.1-9.4,12.6-3.5l25.3,46L241,283.7L241,283.7z M176.8,169
	v46.8c0,6.1-5,11.1-11.1,11.1h-17.5c-6.5,0-10.7-6.9-7.6-12.7l25.4-47.9C168.8,161.1,176.8,163.1,176.8,169L176.8,169z"/>
</svg>
