<?xml version="1.0" encoding="utf-8"?>
<!-- Generator: Adobe Illustrator 27.7.0, SVG Export Plug-In . SVG Version: 6.00 Build 0)  -->
<svg version="1.1" id="Capa_1" xmlns="http://www.w3.org/2000/svg" xmlns:xlink="http://www.w3.org/1999/xlink" x="0px" y="0px"
	 viewBox="0 0 448.3 364" style="enable-background:new 0 0 448.3 364;" xml:space="preserve">
<style type="text/css">
	.st0{fill:#32CD32;}
	.st1{fill:#FFFFFF;}
	.st2{font-family:'Nunito-ExtraBold';}
	.st3{font-size:41.9px;}
</style>
<path class="st0" d="M229.4,20.3L312.8,156c3.5,5.7,11.1,7.1,16.4,3l9.5-7.4c10.8-8.4,26.6-5.2,33.3,6.8l73,127.6
	c9.5,16.6-2.5,37.4-21.7,37.4h-31.2c-15.8,0-30.3-8.9-37.3-23.1l-22.2-46.3c-2.8-5.6-6.7-8.6-11.9-5.1l-4,2c-16,8-30,5-42-12l-2-3
	c-2.9-4.6-8.3-4-8.3,1.5V300c0,13-10.5,23.5-23.5,23.5l-37.2-0.5c-9,0-13-2-18.3-10.9c-3.7-6.1-8.7-8.1-17.7-8.1h-68
	c-4.8,0-10,3-14,10s-10,10-20,10l-32.9-0.5c-24.8,0-40.1-27.1-27.4-48.4L157.9,20.7C174-6.2,213-6.4,229.4,20.3z"/>
<g>
	<path class="st1" d="M27.2,284.9L175.9,38.6c8-13.3,27.2-13.5,35.5-0.4l84.3,133.2c7.9,12.5,26.1,16.4,38,7.6l8.1-7.5
		c5.7-4.2,13.7-2.6,17.4,3.4l63.4,105.2c5.6,9.3-1.1,21.2-12,21.2h-17.1c-9.3,0-17.8-5.3-22-13.6l-28.7-57.2
		c-3.9-7.7-13.8-10.1-20.8-4.9l0,0c-11.4,6.4-26.4,11.4-37.1-7.4L201.7,77.7c-3.7-6.3-12.8-6.1-16.3,0.2l-85.1,152
		c-5.3,9.5,1.5,21.3,12.5,21.3h70.2c9.6,0,17.5-7.8,17.5-17.5v-98.3c0-6.9,9.1-9.4,12.6-3.5l28.1,47.4c0.1,0.2,0.2,0.5,0.2,0.8
		l1.7,102c0.2,10.6-8.3,19.2-18.9,19.2h-10c-11.4-0.3-13.4-4.3-19.4-12.3s-12-11-21-11h-80c-6.8,0-12,2-19,12s-10,11-18.6,11.3H36.5
		C28.1,301.3,22.9,292.1,27.2,284.9z"/>
</g>
<g>
	<path class="st1" d="M163.5,167l-25.4,47.9c-3.1,5.8,1.1,12.7,7.6,12.7h17.5c6.1,0,11.1-5,11.1-11.1v-46.8
		C174.3,163.7,166.3,161.7,163.5,167z"/>
</g>
<text transform="matrix(1 0 0 1 1.8082 363.6473)" class="st0 st2 st3">ASEO MODERNO SAS</text>
</svg>
