<?xml version="1.0" encoding="utf-8"?>
<!-- Generator: Adobe Illustrator 27.7.0, SVG Export Plug-In . SVG Version: 6.00 Build 0)  -->
<svg version="1.1" id="Capa_1" xmlns="http://www.w3.org/2000/svg" xmlns:xlink="http://www.w3.org/1999/xlink" x="0px" y="0px"
	 viewBox="0 0 448.3 364" style="enable-background:new 0 0 448.3 364;" xml:space="preserve">
<style type="text/css">
	.st0{fill:#32CD32;}
	.st1{font-family:'Nunito-ExtraBold';}
	.st2{font-size:41.9px;}
</style>
<path class="st0" d="M445,286.1l-73-127.6c-6.6-12-22.4-15.2-33.3-6.8l-9.5,7.4c-5.3,4.1-12.9,2.7-16.4-3L229.4,20.3
	C213-6.4,174-6.2,157.9,20.7L5.3,275.1c-12.8,21.3,2.6,48.4,27.4,48.4l32.9,0.5c10,0,16-3,20-10s9.2-10,14-10h68c9,0,14,2,17.7,8.1
	c5.3,8.9,9.3,10.9,18.3,10.9l37.2,0.5c13,0,23.5-10.5,23.5-23.5v-62.5c0-5.4,5.4-6.1,8.3-1.5l2,3c12,17,26,20,42,12l4-2
	c5.2-3.4,9.1-0.4,11.9,5.1l22.2,46.3c7.1,14.1,21.5,23.1,37.3,23.1h31.2C442.5,323.5,454.5,302.8,445,286.1z M410.6,301.3h-17.1
	c-9.3,0-17.8-5.3-22-13.6l-28.7-57.2c-3.9-7.7-13.8-10.1-20.8-4.9h0c-11.4,6.4-26.4,11.4-37.1-7.4L201.7,77.7
	c-3.7-6.3-12.8-6.1-16.3,0.2l-85.1,152c-5.3,9.5,1.5,21.3,12.5,21.3h70.2c9.6,0,17.5-7.8,17.5-17.5v-98.3c0-6.9,9.1-9.4,12.6-3.5
	l28.1,47.4c0.1,0.2,0.2,0.5,0.2,0.8l1.7,102c0.2,10.6-8.3,19.2-18.9,19.2h-10c-11.4-0.3-13.4-4.3-19.4-12.3s-12-11-21-11h-80
	c-6.8,0-12,2-19,12s-10,11-18.6,11.3H36.5c-8.4,0-13.6-9.2-9.3-16.4L175.9,38.6c8-13.3,27.2-13.5,35.5-0.4l84.3,133.2
	c7.9,12.5,26.1,16.4,38,7.6l8.1-7.5c5.7-4.2,13.7-2.6,17.4,3.4l63.4,105.2C428.2,289.4,421.5,301.3,410.6,301.3z M174.3,169.7v46.8
	c0,6.1-5,11.1-11.1,11.1h-17.5c-6.5,0-10.7-6.9-7.6-12.7l25.4-47.9C166.3,161.7,174.3,163.7,174.3,169.7z"/>
<text transform="matrix(1 0 0 1 1.8082 363.6473)" class="st0 st1 st2">ASEO MODERNO SAS</text>
</svg>
