<?xml version="1.0" encoding="UTF-8"?>
<svg width="125px" height="54px" viewBox="0 0 125 54" version="1.1" xmlns="http://www.w3.org/2000/svg" xmlns:xlink="http://www.w3.org/1999/xlink">
    <title>GRUPO-FAMILIA-LOGO blanco</title>
    <g id="Page-1" stroke="none" stroke-width="1" fill="none" fill-rule="evenodd">
        <g id="GRUPO-FAMILIA-LOGO-blanco" fill="#FFFFFF" fill-rule="nonzero">
            <g id="Group" transform="translate(25.134095, 43.142978)">
                <path d="M0,5.49394727 L0,0.49120574 L0.959740446,0.49120574 L0.959740446,5.3805921 C0.959740446,7.02802059 1.54163032,7.67036655 2.8565503,7.67036655 C4.11101419,7.67036655 4.85915832,7.16404679 4.85915832,5.23700889 L4.85915832,0.49120574 L5.81134175,0.49120574 L5.81134175,5.37303509 C5.81134175,7.28495897 4.85160131,8.46385275 2.82632226,8.46385275 C1.02019654,8.46385275 0,7.40587115 0,5.49394727 Z" id="Path"></path>
                <path d="M7.34541506,2.60716893 L8.25981344,2.60716893 L8.25981344,3.5215673 C8.52430884,2.9850195 9.16665481,2.50892778 10.1112812,2.50892778 C11.297732,2.50892778 12.1365603,3.15883076 12.1365603,4.82893027 L12.1365603,8.3656116 L11.2221619,8.3656116 L11.2221619,4.76091717 C11.2221619,3.74827765 10.7914123,3.29485696 9.86945687,3.29485696 C9.02307159,3.29485696 8.25981344,3.83140477 8.25981344,4.86671533 L8.25981344,8.35805459 L7.34541506,8.35805459 L7.34541506,2.60716893 L7.34541506,2.60716893 Z" id="Path"></path>
                <path d="M13.1340858,6.7710822 C13.1340858,5.4410482 14.5472469,4.98762751 16.0208641,4.98762751 L16.8445784,4.98762751 L16.8445784,4.57199189 C16.8445784,3.65759351 16.4893988,3.27218593 15.6127855,3.27218593 C14.8192993,3.27218593 14.3809927,3.60469443 14.2903085,4.30749649 L13.3759101,4.30749649 C13.4968223,3.00013352 14.5396899,2.50892778 15.6581276,2.50892778 C16.7614512,2.50892778 17.7589767,2.96234846 17.7589767,4.56443487 L17.7589767,8.3656116 L16.8445784,8.3656116 L16.8445784,7.64013851 C16.4138287,8.17668632 15.8999519,8.46385275 15.0460097,8.46385275 C13.9880281,8.46385275 13.1340858,7.94997597 13.1340858,6.7710822 Z M16.8445784,6.34788956 L16.8445784,5.62997348 L16.0510922,5.62997348 C14.8948694,5.62997348 14.0484842,5.91713991 14.0484842,6.76352519 C14.0484842,7.36052909 14.3356506,7.73082264 15.1366938,7.73082264 C16.1115483,7.73837966 16.8445784,7.2396169 16.8445784,6.34788956 Z" id="Shape"></path>
                <path d="M21.4090132,5.54684635 L21.4090132,5.45616222 C21.4090132,3.69537857 22.6634771,2.50892778 24.2051075,2.50892778 C25.4066723,2.50892778 26.52511,3.06058961 26.7064782,4.52664982 L25.7996369,4.52664982 C25.6560536,3.61225144 24.9985937,3.27218593 24.2051075,3.27218593 C23.1622399,3.27218593 22.3536397,4.11101419 22.3536397,5.46371923 L22.3536397,5.55440337 C22.3536397,6.96756449 23.1244548,7.71570862 24.2353355,7.71570862 C25.0514927,7.71570862 25.7845228,7.2396169 25.890321,6.30254749 L26.7367063,6.30254749 C26.6157941,7.54945437 25.6107116,8.47140976 24.2277785,8.47140976 C22.6181351,8.46385275 21.4090132,7.33030104 21.4090132,5.54684635 Z" id="Path"></path>
                <path d="M27.3639382,5.53928934 L27.3639382,5.44860521 C27.3639382,3.7180496 28.565503,2.50892778 30.1978175,2.50892778 C31.8301319,2.50892778 33.0241397,3.71049259 33.0241397,5.4410482 L33.0241397,5.53173233 C33.0241397,7.26984495 31.8225749,8.47140976 30.1827035,8.47140976 C28.542832,8.46385275 27.3639382,7.21694587 27.3639382,5.53928934 Z M32.0719563,5.53928934 L32.0719563,5.46371923 C32.0719563,4.13368523 31.3313692,3.27218593 30.1902605,3.27218593 C29.0340377,3.27218593 28.3085646,4.13368523 28.3085646,5.44860521 L28.3085646,5.53928934 C28.3085646,6.84665231 29.0264807,7.70815161 30.1902605,7.70815161 C31.3464832,7.70815161 32.0719563,6.83153829 32.0719563,5.53928934 Z" id="Shape"></path>
                <path d="M34.1274634,2.60716893 L35.0418618,2.60716893 L35.0418618,3.49133926 C35.3063572,2.95479145 35.9335891,2.50892778 36.7573034,2.50892778 C37.4978905,2.50892778 38.1477935,2.81876525 38.4425169,3.58958041 C38.8354815,2.84143628 39.6969808,2.50892778 40.4148969,2.50892778 C41.4502074,2.50892778 42.3494918,3.12860271 42.3494918,4.79870223 L42.3494918,8.3656116 L41.4350934,8.3656116 L41.4350934,4.73068913 C41.4350934,3.7180496 41.0043438,3.30241397 40.2108576,3.30241397 C39.4627134,3.30241397 38.6918983,3.80873374 38.6918983,4.8440443 L38.6918983,8.3656116 L37.7774999,8.3656116 L37.7774999,4.73068913 C37.7774999,3.7180496 37.3467503,3.30241397 36.5532641,3.30241397 C35.8051199,3.30241397 35.0343048,3.80873374 35.0343048,4.8440443 L35.0343048,8.3656116 L34.1199064,8.3656116 L34.1274634,2.60716893 L34.1274634,2.60716893 Z" id="Path"></path>
                <path d="M43.823109,2.60716893 L44.7375074,2.60716893 L44.7375074,3.57446638 C45.0700159,3.01524754 45.8483881,2.50892778 46.6872163,2.50892778 C48.1986186,2.50892778 49.3094993,3.61225144 49.3094993,5.40326314 L49.3094993,5.49394727 C49.3094993,7.25473093 48.2741887,8.46385275 46.6872163,8.46385275 C45.7425899,8.46385275 45.0700159,7.98776103 44.7375074,7.42098518 L44.7375074,10.3682196 L43.823109,10.3682196 L43.823109,2.60716893 Z M48.3648728,5.53928934 L48.3648728,5.44860521 C48.3648728,3.99765902 47.5638296,3.27218593 46.5889752,3.27218593 C45.5234366,3.27218593 44.7072793,3.97498799 44.7072793,5.44860521 L44.7072793,5.53928934 C44.7072793,7.01290656 45.4780945,7.70815161 46.6040892,7.70815161 C47.7451979,7.70815161 48.3648728,6.93733645 48.3648728,5.53928934 Z" id="Shape"></path>
                <path d="M49.9367312,6.7710822 C49.9367312,5.4410482 51.3498923,4.98762751 52.8235096,4.98762751 L53.6472238,4.98762751 L53.6472238,4.57199189 C53.6472238,3.65759351 53.2920443,3.27218593 52.4154309,3.27218593 C51.6219448,3.27218593 51.1836381,3.60469443 51.092954,4.30749649 L50.1785556,4.30749649 C50.2994678,3.00013352 51.3423353,2.50892778 52.460773,2.50892778 C53.5640967,2.50892778 54.5616222,2.96234846 54.5616222,4.56443487 L54.5616222,8.3656116 L53.6472238,8.3656116 L53.6472238,7.64013851 C53.2164742,8.17668632 52.7025974,8.46385275 51.8486551,8.46385275 C50.7831165,8.46385275 49.9367312,7.94997597 49.9367312,6.7710822 Z M53.6472238,6.34788956 L53.6472238,5.62997348 L52.8537376,5.62997348 C51.6975149,5.62997348 50.8511296,5.91713991 50.8511296,6.76352519 C50.8511296,7.36052909 51.138296,7.73082264 51.9393392,7.73082264 C52.9066367,7.73837966 53.6472238,7.2396169 53.6472238,6.34788956 Z" id="Shape"></path>
                <path d="M56.0352394,2.60716893 L56.9496378,2.60716893 L56.9496378,3.5215673 C57.2141332,2.9850195 57.8489221,2.50892778 58.8011056,2.50892778 C59.9875564,2.50892778 60.8263846,3.15883076 60.8263846,4.82893027 L60.8263846,8.3656116 L59.9119862,8.3656116 L59.9119862,4.76091717 C59.9119862,3.74827765 59.4812366,3.29485696 58.5592812,3.29485696 C57.7128959,3.29485696 56.9496378,3.83140477 56.9496378,4.86671533 L56.9496378,8.35805459 L56.0352394,8.35805459 L56.0352394,2.60716893 L56.0352394,2.60716893 Z M57.7960231,1.07309562 C57.5844267,1.07309562 57.4106155,1.28469193 57.3577164,1.57185837 L56.7002564,1.57185837 C56.7909405,0.793486195 57.2368042,0.294723444 57.8111371,0.294723444 C58.2721148,0.294723444 58.6726364,0.770815161 58.9900308,0.770815161 C59.2016272,0.770815161 59.3754384,0.559218842 59.4283375,0.27205241 L60.0857975,0.27205241 C59.9951134,1.05042458 59.5492497,1.54918733 58.9824738,1.54918733 C58.5139391,1.54918733 58.1209745,1.07309562 57.7960231,1.07309562 Z" id="Shape"></path>
                <path d="M62.3226729,2.60716893 L63.2370712,2.60716893 L63.2370712,8.3656116 L62.3226729,8.3656116 L62.3226729,2.60716893 Z M63.048146,8.59132727e-15 L64.1968117,8.59132727e-15 L63.048146,1.61720044 L62.3680149,1.61720044 L63.048146,8.59132727e-15 Z" id="Shape"></path>
                <path d="M64.3177239,6.7710822 C64.3177239,5.4410482 65.730885,4.98762751 67.2045022,4.98762751 L68.0282165,4.98762751 L68.0282165,4.57199189 C68.0282165,3.65759351 67.6730369,3.27218593 66.7964236,3.27218593 C66.0029374,3.27218593 65.5646308,3.60469443 65.4739466,4.30749649 L64.5595482,4.30749649 C64.6804604,3.00013352 65.723328,2.50892778 66.8417657,2.50892778 C67.9450893,2.50892778 68.9426148,2.96234846 68.9426148,4.56443487 L68.9426148,8.3656116 L68.0282165,8.3656116 L68.0282165,7.64013851 C67.5974668,8.17668632 67.08359,8.46385275 66.2296478,8.46385275 C65.1641091,8.46385275 64.3177239,7.94997597 64.3177239,6.7710822 Z M68.0282165,6.34788956 L68.0282165,5.62997348 L67.2347303,5.62997348 C66.0785075,5.62997348 65.2321223,5.91713991 65.2321223,6.76352519 C65.2321223,7.36052909 65.5192887,7.73082264 66.3203319,7.73082264 C67.2876293,7.73837966 68.0282165,7.2396169 68.0282165,6.34788956 Z" id="Shape"></path>
                <polygon id="Path" points="73.0838571 0.49120574 77.67852 0.49120574 77.67852 1.26957791 74.0435975 1.26957791 74.0435975 3.94475994 76.9757179 3.94475994 76.9757179 4.72313211 74.0435975 4.72313211 74.0435975 7.5721254 77.8750023 7.5721254 77.8750023 8.35049758 73.0838571 8.35049758"></polygon>
                <path d="M78.4568922,6.58971393 L79.3486195,6.58971393 C79.4166326,7.26984495 79.7793692,7.7005946 80.7013246,7.7005946 C81.5703809,7.7005946 81.9557884,7.40587115 81.9557884,6.78619622 C81.9557884,6.18163531 81.5023678,5.98515301 80.6106404,5.81889876 C79.1143522,5.54684635 78.6080324,5.12365372 78.6080324,4.12612821 C78.6080324,3.06058961 79.6509,2.50892778 80.5577413,2.50892778 C81.5930519,2.50892778 82.4847792,2.9245634 82.6359195,4.17147028 L81.7593061,4.17147028 C81.6232799,3.54423834 81.2756574,3.26462892 80.5501843,3.26462892 C79.8927243,3.26462892 79.4619747,3.59713742 79.4619747,4.08834316 C79.4619747,4.60221993 79.7491411,4.81381625 80.8071227,5.00274154 C81.9935735,5.22189487 82.8324018,5.48639026 82.8324018,6.71062611 C82.8324018,7.75349368 82.1144857,8.46385275 80.7164386,8.46385275 C79.3335055,8.46385275 78.5097912,7.7686077 78.4568922,6.58971393 Z" id="Path"></path>
                <path d="M83.4218486,6.58971393 L84.313576,6.58971393 C84.3815891,7.26984495 84.7443256,7.7005946 85.666281,7.7005946 C86.5353373,7.7005946 86.9207449,7.40587115 86.9207449,6.78619622 C86.9207449,6.18163531 86.4673242,5.98515301 85.5755969,5.81889876 C84.0793086,5.54684635 83.5729889,5.12365372 83.5729889,4.12612821 C83.5729889,3.06058961 84.6158564,2.50892778 85.5226978,2.50892778 C86.5580084,2.50892778 87.4497357,2.9245634 87.6008759,4.17147028 L86.7167056,4.17147028 C86.5806794,3.54423834 86.2330569,3.26462892 85.5075838,3.26462892 C84.8501238,3.26462892 84.4193742,3.59713742 84.4193742,4.08834316 C84.4193742,4.60221993 84.7065406,4.81381625 85.7645222,5.00274154 C86.950973,5.22189487 87.7898012,5.48639026 87.7898012,6.71062611 C87.7898012,7.75349368 87.0718851,8.46385275 85.673838,8.46385275 C84.306019,8.46385275 83.4747477,7.7686077 83.4218486,6.58971393 Z" id="Path"></path>
                <path d="M88.7193136,0.801043207 C88.7193136,0.468534706 88.991366,0.196482296 89.3238745,0.196482296 C89.656383,0.196482296 89.9284354,0.468534706 89.9284354,0.801043207 C89.9284354,1.13355171 89.656383,1.40560412 89.3238745,1.40560412 C88.991366,1.40560412 88.7193136,1.13355171 88.7193136,0.801043207 Z M88.8855679,2.60716893 L89.7999663,2.60716893 L89.7999663,8.3656116 L88.8855679,8.3656116 L88.8855679,2.60716893 Z" id="Shape"></path>
                <path d="M91.5456359,6.92222243 L91.5456359,3.37798409 L90.7219216,3.37798409 L90.7219216,2.60716893 L91.5456359,2.60716893 L91.5456359,1.29224895 L92.4600343,1.29224895 L92.4600343,2.59961192 L93.8051823,2.59961192 L93.8051823,3.37042708 L92.4600343,3.37042708 L92.4600343,6.83153829 C92.4600343,7.39075713 92.7094156,7.67036655 93.1779503,7.67036655 C93.4651168,7.67036655 93.6842701,7.62502448 93.8807524,7.54945437 L93.8807524,8.32026953 C93.6918271,8.38828263 93.4726738,8.44118171 93.1023802,8.44118171 C92.0519556,8.44118171 91.5456359,7.82906379 91.5456359,6.92222243 Z" id="Path"></path>
                <polygon id="Path" points="96.5483774 7.7686077 94.288831 2.60716893 95.2712425 2.60716893 97.0320261 6.73329714 98.6265555 2.60716893 99.563625 2.60716893 96.3821232 10.3682196 95.4601678 10.3682196"></polygon>
            </g>
            <g id="Group" transform="translate(0.000000, 0.000000)">
                <g transform="translate(32.493076, 0.000000)">
                    <path d="M32.7687491,2.35778755 C34.7562431,2.35778755 35.2474488,3.8540758 35.0056245,5.23700889 C34.673116,7.0355776 33.3128539,8.27492746 31.5293992,8.27492746 C30.017997,8.27492746 28.9600154,7.32274403 29.3151949,5.34280705 C29.6250324,3.61980845 31.0835356,2.36534456 32.7536351,2.36534456 L32.7687491,2.35778755 L32.7687491,2.35778755 Z M32.4362406,3.27218593 C31.6880965,3.27218593 31.2875749,4.09590017 31.0910926,5.1765528 C30.8114832,6.72574013 31.2573468,7.36052909 31.8770218,7.36052909 C32.6251659,7.36052909 33.0181305,6.51414381 33.2221698,5.40326314 C33.4639942,4.05811511 33.1692707,3.27218593 32.4513546,3.27218593 L32.4362406,3.27218593 L32.4362406,3.27218593 Z" id="Shape"></path>
                    <path d="M7.18826557,4.5115358 C7.19582259,4.49642177 7.19582259,4.47375074 7.19582259,4.45863672 L7.21093661,4.40573764 C7.30162075,3.92208891 6.97666926,3.52912432 6.49302053,3.52912432 C6.0093718,3.52912432 5.54083709,3.92208891 5.45770997,4.40573764 L4.95139021,7.23205989 C4.83803503,7.26984495 4.64155274,7.33030104 4.33171527,7.33030104 C2.88076909,7.33030104 1.58852014,6.30254749 1.97392772,4.1185712 C2.3593353,1.995051 3.77249643,1.14866573 5.1478725,1.14866573 C5.87334559,1.14866573 5.95647272,1.17889378 6.55347662,1.42071814 C6.87842811,1.55674434 7.5358881,0.770815161 7.31673477,0.574332865 C6.93132719,0.21915333 6.53080558,0 5.32168376,0 C2.82787001,0 0.568323604,1.60208641 0.099788898,4.20925534 C-0.497215001,7.5041123 1.6943183,8.30515551 3.7498254,8.30515551 C4.29393022,8.30515551 4.77002193,8.22202838 5.20832859,8.12378724 C5.32924077,8.19935735 5.47282399,8.25225643 5.63152123,8.25225643 C6.11516996,8.25225643 6.56859064,7.86684885 6.65927478,7.39075713 C6.65927478,7.39075713 6.65927478,7.39075713 6.66683179,7.38320012 L7.18826557,4.5115358 Z" id="Path"></path>
                    <path d="M26.1336931,2.35778755 C25.5669173,2.35778755 25.0454835,2.59961192 24.3729095,2.99257651 C24.3426814,2.64495398 24.063072,2.37290157 23.6776644,2.37290157 C23.2166867,2.37290157 22.7783801,2.74319513 22.6952529,3.21172984 L21.5088021,9.78632974 C21.433232,10.2473074 21.7355125,10.617601 22.1964902,10.617601 C22.6574679,10.617601 23.1033315,10.2473074 23.1789017,9.78632974 L23.4962961,8.07844517 C23.6776644,8.20691436 23.9950589,8.26737045 24.2368833,8.26737045 C25.9976669,8.26737045 27.5544112,6.83153829 27.8793627,5.01785556 C28.1589722,3.51401029 27.5015122,2.35778755 26.1336931,2.35778755 Z M24.2293262,7.27740196 C24.040401,7.27740196 23.8061336,7.24717392 23.6625504,7.20183185 L24.2746683,3.7860627 C24.4031375,3.72560661 24.735646,3.56690937 25.1815097,3.56690937 C25.9069828,3.56690937 26.2697193,4.30749649 26.1034651,5.2445659 C25.8162986,6.80131024 24.9170143,7.27740196 24.2293262,7.27740196 Z" id="Shape"></path>
                    <path d="M19.8235886,2.37290157 C19.3626109,2.37290157 18.9167472,2.74319513 18.8336201,3.21172984 L18.1761601,6.80886726 C18.0023489,6.94489346 17.6698404,7.08091967 17.3373319,7.08091967 C16.9821523,7.08091967 16.4380475,6.94489346 16.5967447,6.06828014 L17.1030645,3.23440087 C17.1181785,3.18150179 17.1181785,3.14371673 17.1106215,3.10593168 C17.1332926,2.68273904 16.8385691,2.36534456 16.4153765,2.36534456 C15.9468418,2.36534456 15.5085351,2.73563812 15.425408,3.20417283 L15.0853425,5.09342567 C15.0853425,5.09342567 15.0853425,5.09342567 15.0853425,5.10098268 L14.8964172,6.15140727 C14.6697068,7.39075713 15.0853425,8.26737045 16.3851484,8.26737045 C16.6798719,8.26737045 16.9670383,8.18424333 17.2239767,8.07844517 C17.4733581,7.96509 17.7907525,7.79883575 18.0476909,7.6325815 C18.0099059,8.05577413 18.3046293,8.38828263 18.735379,8.38828263 C19.2039137,8.38828263 19.6422203,8.01798908 19.7329045,7.54945437 L20.5112766,3.21172984 C20.5944038,2.75075214 20.2845663,2.37290157 19.8235886,2.37290157 Z" id="Path"></path>
                    <path d="M13.3623439,2.48625674 C13.2338747,2.41068663 13.0676204,2.36534456 12.8938092,2.36534456 C12.2741342,2.36534456 11.7149154,2.71296709 11.2388237,3.41576914 L11.2766087,3.21928685 C11.3597359,2.75075214 11.0498984,2.38045859 10.5889207,2.38045859 C10.127943,2.38045859 9.68207933,2.75075214 9.59895221,3.21928685 L8.81302302,7.55701138 C8.7298959,8.01798908 9.03217635,8.39583965 9.50071106,8.39583965 C9.96168875,8.39583965 10.4075524,8.02554609 10.4906795,7.55701138 C10.4906795,7.55701138 10.9516572,5.00274154 10.9592143,4.99518452 C11.0121133,4.7155751 11.0574554,4.58710591 11.1708106,4.39062361 C11.435306,3.89186086 11.7602575,3.82384776 11.9567398,3.82384776 C12.2741342,3.82384776 12.4177175,3.86918983 12.6973269,4.02788707 C12.9013662,3.9145319 13.3925719,3.32508501 13.4832561,2.8565503 C13.4983701,2.69785306 13.475699,2.56182686 13.3623439,2.48625674 Z" id="Path"></path>
                </g>
                <g transform="translate(0.000000, 0.929512)">
                    <path d="M73.6878927,19.4139622 C74.7761024,19.4139622 75.7811849,19.0058836 76.6955832,18.1897264 C77.6099816,17.3735692 78.1616435,16.4138287 78.3430117,15.3256191 C78.531937,14.2298524 78.3052267,13.277669 77.6704377,12.4615118 C77.0356488,11.6453545 76.1665924,11.2372759 75.0783828,11.2372759 C73.9901732,11.2372759 72.9699766,11.6151265 72.0177932,12.3708276 C71.0731668,13.1265288 70.4837199,14.0484842 70.2570095,15.1366938 C70.0302992,16.4818418 70.2343385,17.5171524 70.8917985,18.2501825 C71.5492585,18.9832126 72.4787709,19.3761772 73.6878927,19.4139622 Z" id="Path"></path>
                    <path d="M94.7946255,14.7512862 C95.8828351,14.7512862 96.8954747,14.3432076 97.8325441,13.5270504 C98.7696135,12.7033361 99.3439464,11.7511527 99.5479857,10.655386 C99.767139,9.5596194 99.5630997,8.60743596 98.9434248,7.79127874 C98.3237498,6.97512151 97.4698075,6.56704289 96.3815979,6.56704289 C95.2782742,6.56704289 94.2580777,6.93733645 93.2983373,7.69303759 C92.3310398,8.44873873 91.7189219,9.37069411 91.4695405,10.4740178 C91.2126021,11.8116088 91.3939704,12.8544764 92.0287593,13.5875065 C92.6635483,14.3205366 93.5855037,14.7059441 94.7946255,14.7512862 Z" id="Path"></path>
                    <path d="M85.854681,8.27492746 C86.9353337,8.27492746 87.9328592,7.85929184 88.8623716,7.0355776 C89.784327,6.21186336 90.3435458,5.2445659 90.5475851,4.14124224 C90.7516244,3.03791858 90.5475851,2.07817813 89.9203532,1.24690688 C89.3006782,0.415635626 88.454293,0 87.3736403,0 C86.2929877,0 85.2803482,0.38540758 84.3281647,1.14866573 C83.3759813,1.91192388 82.7789774,2.84143628 82.529596,3.94475994 C82.2802147,5.29746498 82.476697,6.34788956 83.1039289,7.09603369 C83.7462749,7.8366208 84.6531162,8.2295854 85.854681,8.27492746 Z" id="Path"></path>
                    <path d="M82.8621045,24.1597654 C83.9427572,24.1597654 84.9478397,23.7441298 85.854681,22.9204155 C86.7615224,22.0967013 87.3131842,21.1369608 87.4869955,20.0411942 C87.6683638,18.9454275 87.4416534,17.9932441 86.7993075,17.1695299 C86.1569615,16.3458156 85.3030192,15.937737 84.2148096,15.937737 C83.1265999,15.945294 82.1139604,16.3155876 81.176891,17.0788457 C80.2398216,17.8421039 79.6579317,18.7716163 79.4312214,19.8673829 C79.212068,21.220088 79.4236644,22.2629555 80.0735673,23.0035426 C80.7310273,23.7365728 81.6605397,24.1219803 82.8621045,24.1597654 Z" id="Path"></path>
                    <path d="M124.214071,10.3153205 C124.554136,10.647829 124.712834,11.0407936 124.69772,11.5244424 C124.690163,12.0005341 124.516351,12.4086127 124.161172,12.7562352 C123.821106,13.0963007 123.405471,13.270112 122.921822,13.277669 C122.438173,13.285226 122.022538,13.1189718 121.697586,12.7864633 C121.357521,12.4539548 121.20638,12.0458761 121.221494,11.5697844 C121.221494,11.0936927 121.402863,10.6931711 121.742928,10.3455486 C122.098108,10.0054831 122.506186,9.83167181 122.982278,9.8241148 C123.473484,9.81655779 123.889119,9.98281204 124.214071,10.3153205 Z M124.433224,10.1037242 C124.032703,9.72587365 123.556611,9.53694836 122.997392,9.55206239 C122.438173,9.55206239 121.962081,9.74854468 121.56156,10.1490663 C121.161038,10.5495879 120.949442,11.0181226 120.934328,11.5773414 C120.919214,12.1290033 121.115696,12.605095 121.493547,12.9829456 C121.886511,13.3759101 122.355046,13.5723924 122.921822,13.5572784 C123.481041,13.5572784 123.964689,13.3532391 124.365211,12.9602745 C124.77329,12.5521959 124.969772,12.0761042 125,11.5319994 C125,10.9803375 124.811075,10.5042458 124.433224,10.1037242 Z M123.261887,11.4488722 C123.17876,11.4866573 123.057848,11.5017713 122.891594,11.5017713 L122.536414,11.5093283 L122.551528,10.7082851 L122.884037,10.7082851 C123.10319,10.7007281 123.261887,10.7309562 123.352572,10.7838552 C123.450813,10.8367543 123.503712,10.9425525 123.496155,11.1012497 C123.496155,11.275061 123.405471,11.3959732 123.261887,11.4488722 Z M122.120779,12.6504371 L122.506186,12.64288 L122.528857,11.7813807 L122.838695,11.7738237 C123.042734,11.7738237 123.17876,11.7964948 123.277001,11.8493938 C123.405471,11.924964 123.481041,12.0836612 123.481041,12.3405996 L123.473484,12.5219679 L123.481041,12.582424 C123.481041,12.597538 123.481041,12.605095 123.481041,12.620209 C123.481041,12.620209 123.481041,12.627766 123.481041,12.635323 L123.851334,12.635323 L123.851334,12.605095 C123.83622,12.582424 123.828663,12.5521959 123.828663,12.4841828 C123.828663,12.4388407 123.828663,12.3783846 123.828663,12.3330426 L123.828663,12.1592313 C123.828663,12.0458761 123.783321,11.940078 123.722865,11.8342798 C123.632181,11.7133676 123.511269,11.6377975 123.3299,11.6226835 C123.473484,11.5924555 123.579282,11.5622274 123.654852,11.5093283 C123.805992,11.4110872 123.874005,11.267504 123.889119,11.0710217 C123.904233,10.7989693 123.783321,10.617601 123.564168,10.5193598 C123.413028,10.4664608 123.224102,10.4437897 122.944493,10.4437897 L122.166121,10.4589038 L122.120779,12.6504371 Z" id="Shape"></path>
                    <path d="M19.2018406,1.42827515 C18.6577358,0.680131024 17.7811225,0.188925285 16.77604,0.188925285 C16.760926,0.188925285 16.745812,0.188925285 16.7306979,0.188925285 C16.7306979,0.188925285 16.7231409,0.188925285 16.7155839,0.188925285 C15.2419667,0.188925285 15.4913481,0.188925285 14.2897833,0.188925285 C9.03766034,0.188925285 6.74032888,4.08834316 6.22645211,6.53681485 C6.04508383,7.4360992 5.87882958,8.15401528 5.6899043,9.10619872 C5.65967625,9.24222492 5.59922016,9.5596194 5.50853602,9.99792606 C5.14579948,11.4639863 4.07270386,11.2372759 4.07270386,11.2372759 C3.20364755,11.2372759 2.32703423,11.4639863 1.57889011,11.9854201 C0.830745979,12.5068538 0.271527137,13.3381251 0.0599308184,14.3507646 C0.00703173868,14.5699179 0.0221457614,14.5396899 0.00703173868,14.7437292 C-0.0534243524,15.5976715 0.279084148,16.4062717 0.883645059,16.8748064 C1.47309195,17.3508981 2.22123607,17.5171524 2.99205123,17.5171524 L3.40768686,17.5171524 C4.01224777,17.5247094 3.75530938,18.3333096 3.75530938,18.3333096 C3.75530938,18.3333096 1.85849953,28.9433536 1.53354804,30.7797074 C1.46553494,31.0593168 1.42774988,31.3540402 1.42019287,31.6563207 C1.39752183,33.7949549 3.12052043,35.5330675 5.25915465,35.5330675 C7.11062244,35.5330675 8.66736678,34.2332616 9.06788839,32.4951489 C9.09055942,32.4120218 9.09811643,32.3213377 9.12078747,32.2306535 L11.6070442,18.4693358 C11.6070442,18.4693358 11.7052854,17.5020384 12.5818987,17.5020384 L12.8690651,17.4869243 C13.7381214,17.4869243 14.5240506,17.290442 15.2721947,16.7690083 C16.0203389,16.2475745 16.5795577,15.4163032 16.798711,14.4112207 C16.8516101,14.1845104 16.8364961,14.2222954 16.8516101,14.0106991 C16.9120662,13.1567568 16.5720007,12.3481566 15.9749968,11.8796219 C15.3779929,11.4110872 14.6374058,11.2372759 13.8665906,11.2372759 C13.8665906,11.2372759 12.9295212,11.312846 13.0882184,10.3757766 C13.2695867,9.27245297 13.3300428,9.19688285 13.3300428,9.19688285 C13.8817046,6.42345967 14.9321292,6.32521853 16.6400138,6.24964841 C16.6702418,6.24964841 16.6929129,6.24964841 16.7231409,6.24964841 C16.8516101,6.24964841 16.9725223,6.2420914 17.1009915,6.22697738 C17.456171,6.18163531 17.7962365,6.07583715 18.113631,5.91713991 C19.0960425,5.41837716 19.7761735,4.40573764 19.7837305,3.22684386 C19.7761735,2.54671284 19.5645772,1.93459491 19.2018406,1.42827515 Z" id="Path"></path>
                    <path d="M119.422926,12.7184502 C118.644553,12.0836612 117.684813,11.6906966 116.581489,11.4866573 C115.886244,11.3581881 115.130543,11.297732 114.3295,11.297732 L106.787603,11.297732 C106.326625,11.297732 105.85809,11.3581881 105.419784,11.5017713 C105.026819,11.6226835 104.648968,11.7964948 104.308903,12.0383191 C103.568316,12.5597529 103.009097,13.3910242 102.805058,14.4036637 C102.759716,14.622817 102.759716,14.592589 102.759716,14.7966283 C102.714373,15.6505706 103.046882,16.4591708 103.659,16.9277055 C104.256004,17.4037972 105.004148,17.5700515 105.774963,17.5700515 L112.470475,17.5700515 L112.478032,17.5776085 C112.493146,17.5700515 112.500703,17.5700515 112.515817,17.5700515 C113.286632,17.5700515 114.080119,17.8194328 113.951649,18.7413882 C113.815623,19.7691418 112.6594,19.7842558 112.485589,19.7993698 C110.090017,20.0487512 107.709558,20.1998914 106.749818,20.3132466 C102.457435,20.7062112 99.1701351,23.1849109 98.2784078,28.2632226 C98.1952806,28.7544283 98.1574956,29.222963 98.1726096,29.6839407 C98.1726096,29.7670678 98.1801666,29.850195 98.1801666,29.9333221 L98.1801666,29.9408791 C98.3917629,32.8654425 100.658866,35.0872038 103.878153,35.3592563 C104.376916,35.4348264 104.890793,35.4726114 105.434898,35.4726114 L105.450012,35.4726114 C105.994116,35.4726114 106.507993,35.4499404 107.006756,35.3970413 C108.578614,35.3592563 110.142916,35.1476599 111.26891,34.3692878 C111.26891,34.3692878 111.805458,34.9738487 112.848326,35.215673 C113.339531,35.3970413 113.89875,35.4801684 114.352171,35.4726114 C115.470609,35.4877255 116.755301,35.1325459 117.458103,34.4297439 C118.160905,33.7420558 118.523641,32.8352145 118.735238,31.845246 L120.987227,19.6104445 C121.153481,18.8245154 121.251722,17.932788 121.274393,17.252657 C121.274393,17.1997579 121.274393,17.1468588 121.28195,17.1015168 C121.327292,15.1215798 120.669832,13.7462037 119.422926,12.7184502 Z M112.402462,26.3286277 C112.221094,27.220355 112.085068,27.9684991 111.238682,28.535275 C111.223568,28.550389 111.200897,28.557946 111.178226,28.57306 C110.286499,29.1398359 108.986693,29.4723444 107.966496,29.4647874 C107.32415,29.4723444 106.825388,29.3816603 106.455094,29.2607481 C106.220827,29.185178 106.039458,29.0869368 105.903432,28.9886957 C105.563367,28.7166433 105.450012,28.4748189 105.450012,27.9911702 C105.457569,27.885372 105.472683,27.7644598 105.495354,27.6359906 C105.55581,27.3488242 105.714507,27.0314297 106.069686,26.6989212 C106.991642,25.7542948 109.039592,24.8247824 112.757642,24.6887562 L112.402462,26.3286277 Z" id="Shape"></path>
                    <path d="M35.2831609,12.7184502 C34.5047887,12.0836612 33.5450483,11.6906966 32.4417246,11.4866573 C31.7389225,11.3581881 30.9907784,11.297732 30.1821782,11.297732 L22.6402808,11.297732 C22.1793031,11.297732 21.7183254,11.3581881 21.2649048,11.5017713 C20.8794972,11.6226835 20.5016466,11.7964948 20.1540241,12.0383191 C19.413437,12.5597529 18.8617751,13.3910242 18.6501788,14.4036637 C18.6048368,14.622817 18.6199508,14.592589 18.6123938,14.7966283 C18.5594947,15.6505706 18.8995602,16.4591708 19.5116781,16.9277055 C20.108682,17.4037972 20.8568261,17.5700515 21.6276413,17.5700515 L28.3231534,17.5700515 C28.3231534,17.5700515 28.3231534,17.5776085 28.3307104,17.5776085 C28.3458244,17.5700515 28.3533814,17.5700515 28.3684955,17.5700515 C29.1393106,17.5700515 29.9327968,17.8194328 29.8043276,18.7413882 C29.6607444,19.7691418 28.5120787,19.7842558 28.3307104,19.7993698 C25.9426948,20.0487512 23.5471222,20.1998914 22.5949388,20.3132466 C18.3025563,20.7062112 15.0152563,23.1849109 14.123529,28.2632226 C14.0404019,28.7544283 14.0026168,29.222963 14.0177308,29.6839407 C14.0252879,29.7670678 14.0252879,29.850195 14.0328449,29.9333221 L14.0328449,29.9408791 C14.2368842,32.8654425 16.5115446,35.0872038 19.7232744,35.3592563 C20.2220372,35.4348264 20.743471,35.4726114 21.2800188,35.4726114 L21.2951328,35.4726114 C21.8316806,35.4726114 22.3531144,35.4499404 22.8443201,35.3970413 C24.4237355,35.3592563 25.9804799,35.1476599 27.1064746,34.3692878 C27.1064746,34.3692878 27.6505794,34.9738487 28.6858899,35.215673 C29.1770957,35.3970413 29.7287575,35.4801684 30.1897352,35.4726114 C31.3006159,35.4877255 32.5928648,35.1325459 33.2956669,34.4297439 C33.9984689,33.7420558 34.3612055,32.8352145 34.5728018,31.845246 L36.8247912,19.6104445 C36.9910454,18.8245154 37.0817296,17.932788 37.1119576,17.252657 C37.1195146,17.1997579 37.1195146,17.1468588 37.1195146,17.1015168 C37.1875277,15.1215798 36.5300677,13.7462037 35.2831609,12.7184502 Z M28.2626973,26.3286277 C28.081329,27.220355 27.9377458,27.9684991 27.0989175,28.535275 C27.0762465,28.550389 27.0611325,28.557946 27.0384615,28.57306 C26.1391771,29.1398359 24.8393711,29.4723444 23.8267316,29.4647874 C23.1843856,29.4723444 22.6856229,29.3816603 22.3077723,29.2607481 C22.073505,29.185178 21.8921367,29.0869368 21.7561105,28.9886957 C21.416045,28.7166433 21.2951328,28.4748189 21.3026898,27.9911702 C21.3102468,27.885372 21.3253608,27.7644598 21.3480319,27.6359906 C21.416045,27.3488242 21.5671852,27.0314297 21.9148077,26.6989212 C22.8443201,25.7542948 24.8847132,24.8247824 28.6027628,24.6887562 L28.2626973,26.3286277 Z" id="Shape"></path>
                    <path d="M76.9374076,19.1419098 C76.1968205,19.7993698 74.9045715,20.4341588 73.869261,20.4341588 C72.3276307,20.4341588 71.1336229,19.8824969 70.3023516,18.9454275 C70.1436544,18.7640593 69.9320581,18.2199544 69.7582468,19.3157211 L67.4760294,31.4825094 L67.4760294,31.4825094 C67.4533583,31.5656365 67.4306873,31.6412067 67.4155733,31.7243338 C67.0150517,33.840297 68.4130988,35.5481815 70.536619,35.5481815 C71.2847631,35.5481815 72.0253502,35.3290282 72.6828102,34.9587347 C72.6979242,34.9511776 72.7130382,34.9436206 72.7281523,34.9360636 C72.8188364,34.8831645 72.8944065,34.8302655 72.9850907,34.7773664 C73.0077617,34.7622524 73.0304327,34.7471383 73.0531038,34.7320243 C73.1286739,34.6791252 73.204244,34.6186691 73.2798141,34.5657701 C73.3024851,34.543099 73.3402702,34.520428 73.3629412,34.497757 C73.4309543,34.4373009 73.4989674,34.3844018 73.5669805,34.3239457 C73.5972086,34.2937177 73.6274366,34.2710466 73.6576647,34.2408186 C73.7181208,34.1879195 73.7785769,34.1199064 73.8390329,34.0594503 C73.869261,34.0292223 73.899489,33.9989942 73.9297171,33.9687662 C73.9826162,33.9007531 74.0430722,33.840297 74.0959713,33.7798409 C74.1261994,33.7420558 74.1564274,33.7118278 74.1790985,33.6740427 C74.2319975,33.6135866 74.2773396,33.5455735 74.3302387,33.4775604 C74.3529097,33.4397754 74.3755808,33.4019903 74.3982518,33.3717623 C74.4511509,33.3037492 74.4889359,33.228179 74.541835,33.1601659 C74.556949,33.1299379 74.572063,33.0921528 74.5947341,33.0619248 C74.6400761,32.9787977 74.6854182,32.9032276 74.7307603,32.8201004 L74.7307603,32.8125434 C74.9045715,32.4649209 75.0254837,32.0946273 75.1010538,31.7167768 C75.1161679,31.6638777 75.1161679,31.6034216 75.1237249,31.5505225 C75.1312819,31.5202945 75.1388389,31.4900664 75.1388389,31.4598384 L77.4361704,19.3686202 C77.5948676,18.4844498 77.0280917,19.0587827 76.9374076,19.1419098 Z" id="Path"></path>
                    <path d="M98.0063553,14.4867908 C97.2657682,15.1442508 95.9735193,15.7865968 94.9382087,15.7865968 C93.3965784,15.7865968 92.2025706,15.2349349 91.3712993,14.2978655 C91.2126021,14.1164973 91.0085628,13.5723924 90.8271945,14.6681591 L87.6985918,31.3615972 L87.6985918,31.3615972 C87.6759208,31.4447244 87.6532497,31.5278515 87.6305787,31.6034216 C87.2376141,33.7118278 88.6356612,35.4272694 90.7591814,35.4272694 C91.5073256,35.4272694 92.2403557,35.208116 92.9053727,34.8378225 C92.9204867,34.8302655 92.9280437,34.8227084 92.9431577,34.8151514 C93.0338419,34.7698094 93.116969,34.7169103 93.2000961,34.6564542 C93.2303241,34.6413402 93.2529952,34.6262262 93.2756662,34.6111121 C93.3512363,34.5582131 93.4343635,34.505314 93.5099336,34.4448579 C93.5401616,34.4221868 93.5703897,34.3995158 93.5930607,34.3768448 C93.6610738,34.3239457 93.7290869,34.2634896 93.7971,34.2030335 C93.827328,34.1728055 93.8575561,34.1501344 93.8877841,34.1199064 C93.9482402,34.0594503 94.0162533,33.9989942 94.0691524,33.9385381 C94.1069375,33.9083101 94.1296085,33.878082 94.1598365,33.847854 C94.2202926,33.7873979 94.2731917,33.7193848 94.3260908,33.6589287 C94.3563188,33.6287007 94.3865469,33.5909156 94.4092179,33.5606875 C94.462117,33.4926744 94.5150161,33.4246613 94.5603582,33.3566482 C94.5830292,33.3188632 94.6057002,33.2886351 94.6283713,33.2508501 C94.6737133,33.182837 94.7266124,33.1072669 94.7643975,33.0316968 C94.7795115,33.0014687 94.8021825,32.9712407 94.8172965,32.9410126 C94.8626386,32.8654425 94.9079807,32.7823154 94.9457657,32.6991883 L94.9533227,32.6916312 C95.127134,32.3440087 95.2480462,31.9737152 95.3236163,31.5883076 C95.3311733,31.5354085 95.3387303,31.4825094 95.3462873,31.4220533 C95.3538443,31.3918253 95.3538443,31.3615972 95.3614014,31.3313692 L98.4975611,14.7135012 C98.6638153,13.8368878 98.1045965,14.4112207 98.0063553,14.4867908 Z" id="Path"></path>
                    <path d="M86.1569615,23.9406121 C85.4088174,24.598072 84.1241254,25.240418 83.0812579,25.240418 C81.5396275,25.240418 80.3531768,24.6963132 79.5143485,23.7516868 C79.3480942,23.5703185 79.1440549,23.0186567 78.9626867,24.1144233 L76.9600786,34.7698094 L76.9600786,34.7698094 C76.9374076,34.8453795 76.9147366,34.9360636 76.9071796,35.0116337 C76.506658,37.1275969 77.9047051,38.8354815 80.0282253,38.8354815 C80.7763694,38.8354815 81.5093995,38.6238852 82.1744165,38.2535916 C82.1895305,38.2460346 82.2046445,38.2384776 82.2197586,38.2309206 C82.3104427,38.1780215 82.3935698,38.1326794 82.476697,38.0797804 C82.499368,38.0646663 82.522039,38.0495523 82.5447101,38.0344383 C82.6202802,37.9739822 82.6958503,37.9286401 82.7714204,37.868184 C82.8016484,37.85307 82.8318765,37.830399 82.8621045,37.8077279 C82.9301176,37.7548289 82.9981307,37.6943728 83.0661438,37.6339167 C83.0963719,37.6036886 83.1265999,37.5810176 83.156828,37.5583466 C83.2172841,37.4978905 83.2777402,37.4298774 83.3381963,37.3694213 C83.3684243,37.3391932 83.3986523,37.3089652 83.4213234,37.2787371 C83.4817795,37.210724 83.5346785,37.150268 83.5951346,37.0822549 C83.6178057,37.0520268 83.6480337,37.0142417 83.6782618,36.9840137 C83.7311608,36.9160006 83.7765029,36.8555445 83.829402,36.7799744 C83.852073,36.7497464 83.8747441,36.7119613 83.8974151,36.6817332 C83.9427572,36.6061631 83.9880992,36.53815 84.0334413,36.4625799 C84.0485553,36.4323519 84.0712264,36.4021238 84.0863404,36.3718958 C84.1316824,36.2887687 84.1770245,36.2131985 84.2148096,36.1225144 L84.2148096,36.1225144 C84.3886208,35.7748919 84.509533,35.4045983 84.5851031,35.0267478 C84.6002172,34.9662917 84.6002172,34.9133926 84.6002172,34.8529365 C84.6077742,34.8227084 84.6153312,34.7924804 84.6153312,34.7622524 L86.6330532,24.1899934 C86.8068645,23.2831521 86.2400886,23.8574849 86.1569615,23.9406121 Z" id="Path"></path>
                    <path d="M89.157095,8.0331031 C88.4089509,8.68300608 87.1167019,9.33290906 86.0813914,9.33290906 C84.532204,9.33290906 83.3457533,8.78880424 82.514482,7.85173483 C82.3557848,7.67036655 82.1441885,7.11870472 81.9703772,8.21447137 L81.0257508,13.2172129 L80.504317,15.960408 C80.3380627,16.8521354 80.9048386,16.2702455 80.9879657,16.1946754 C81.7285528,15.5447724 83.0283588,14.8948694 84.0636693,14.8948694 C85.6128567,14.8948694 86.7993075,15.4465313 87.6305787,16.3911577 C87.789276,16.572526 88.0008723,17.1166308 88.1822405,16.0284211 L89.11931,11.0181226 L89.6407437,8.28248447 C89.806998,7.37564311 89.2402221,7.95753299 89.157095,8.0331031 Z" id="Path"></path>
                    <path d="M63.4481423,11.3884162 L58.2564755,11.3884162 C56.9415555,11.3884162 55.2336709,12.1516743 54.5157548,13.0131736 L54.5006408,13.0207306 C54.4855268,13.0131736 54.4779698,13.0056166 54.4704128,12.9980596 C53.6164705,11.9174069 52.2788795,11.3884162 51.2586829,11.3884162 L45.1752888,11.3884162 C42.3791946,11.3884162 40.4672707,13.7310897 40.1120911,15.5447724 L37.1270716,31.5505225 C37.1044006,31.7772329 37.0212735,32.4573639 37.0288305,32.510263 C37.0515015,34.2559326 38.3513075,35.5708526 40.2103323,35.5708526 C42.9308564,35.5708526 44.4271446,32.9939117 44.7143111,31.6714347 L46.9889715,19.7540278 C47.1098837,19.1419098 47.6162034,18.6658181 48.4248037,18.6658181 C49.0973777,18.6658181 49.5583554,19.1645809 49.4374432,19.7691418 C49.4374432,19.7691418 47.2156818,31.7092198 47.2081248,31.7545618 C46.671577,34.5582131 48.621286,35.5708526 50.3216135,35.5708526 C51.8556868,35.5708526 54.2437024,34.2030335 54.6668951,32.4649209 L57.0926957,19.7540278 C57.2060509,19.1419098 57.7728267,18.6658181 58.5285279,18.6658181 C59.1784309,18.6658181 59.6620796,19.1645809 59.5487244,19.7691418 C59.5487244,19.7691418 57.1909369,32.3288947 57.1909369,32.3440087 C57.1304808,34.1728055 58.4529578,35.5784096 60.3724387,35.5784096 C61.5135474,35.5784096 62.6244281,35.0872038 63.4783703,34.3088317 C64.1660584,33.6740427 64.6799351,32.8578855 64.8915315,31.9510441 C64.9066455,31.86036 67.8538799,16.5649689 67.899222,16.3307016 C68.3073006,12.9753885 65.261825,11.3884162 63.4481423,11.3884162 Z" id="Path"></path>
                </g>
            </g>
        </g>
    </g>
</svg>